<svg xmlns="http://www.w3.org/2000/svg" xmlns:xlink="http://www.w3.org/1999/xlink" width="500" zoomAndPan="magnify" viewBox="0 0 375 374.999991" height="500" preserveAspectRatio="xMidYMid meet" version="1.0"><defs><g/></defs><g fill="#100a09" fill-opacity="1"><g transform="translate(82.852624, 204.035264)"><g><path d="M 45.328125 -33.9375 C 44.460938 -32.34375 43.242188 -31.160156 41.671875 -30.390625 C 40.109375 -29.628906 38.394531 -29.179688 36.53125 -29.046875 C 34.664062 -28.910156 32.785156 -28.941406 30.890625 -29.140625 C 28.992188 -29.347656 27.28125 -29.582031 25.75 -29.84375 C 25.289062 -29.976562 24.84375 -30.078125 24.40625 -30.140625 C 23.976562 -30.210938 23.53125 -30.28125 23.0625 -30.34375 C 23.195312 -29.75 23.328125 -29.148438 23.453125 -28.546875 C 23.585938 -27.953125 23.691406 -27.390625 23.765625 -26.859375 C 24.222656 -24.390625 24.664062 -21.921875 25.09375 -19.453125 C 25.53125 -16.992188 25.882812 -14.535156 26.15625 -12.078125 C 26.289062 -10.878906 26.320312 -9.664062 26.25 -8.4375 C 26.1875 -7.207031 25.988281 -6.023438 25.65625 -4.890625 C 25.1875 -3.222656 24.1875 -1.691406 22.65625 -0.296875 C 22.125 0.171875 21.410156 0.550781 20.515625 0.84375 C 19.617188 1.144531 18.867188 0.929688 18.265625 0.203125 C 17.734375 -0.535156 17.414062 -1.351562 17.3125 -2.25 C 17.21875 -3.144531 17.101562 -4.023438 16.96875 -4.890625 C 16.90625 -5.492188 16.820312 -6.109375 16.71875 -6.734375 C 16.625 -7.367188 16.539062 -8.019531 16.46875 -8.6875 C 16 -10.28125 15.601562 -11.976562 15.28125 -13.78125 C 15.34375 -13.25 15.40625 -12.734375 15.46875 -12.234375 C 15.539062 -11.734375 15.609375 -11.21875 15.671875 -10.6875 C 15.804688 -9.820312 15.921875 -8.953125 16.015625 -8.078125 C 16.117188 -7.210938 16.238281 -6.347656 16.375 -5.484375 C 16.4375 -4.828125 16.515625 -4.144531 16.609375 -3.4375 C 16.710938 -2.738281 16.664062 -2.09375 16.46875 -1.5 C 16.46875 -1.425781 16.4375 -1.425781 16.375 -1.5 C 15.96875 -2.09375 15.734375 -2.804688 15.671875 -3.640625 C 15.609375 -4.472656 15.507812 -5.222656 15.375 -5.890625 L 14.46875 -11.078125 C 14.207031 -12.804688 13.941406 -14.519531 13.671875 -16.21875 C 13.410156 -17.914062 13.144531 -19.628906 12.875 -21.359375 C 12.539062 -23.421875 12.222656 -25.484375 11.921875 -27.546875 C 11.628906 -29.609375 11.316406 -31.671875 10.984375 -33.734375 C 7.785156 -35.003906 4.722656 -36.40625 1.796875 -37.9375 C 1.734375 -38 1.734375 -38.0625 1.796875 -38.125 C 1.859375 -38.195312 1.925781 -38.203125 2 -38.140625 C 3.457031 -37.472656 4.9375 -36.820312 6.4375 -36.1875 C 7.9375 -35.550781 9.414062 -34.96875 10.875 -34.4375 C 10.8125 -34.769531 10.742188 -35.066406 10.671875 -35.328125 C 10.609375 -35.597656 10.546875 -35.867188 10.484375 -36.140625 C 9.347656 -36.609375 8.226562 -37.085938 7.125 -37.578125 C 6.03125 -38.078125 4.921875 -38.5625 3.796875 -39.03125 C 2.734375 -39.5625 2.066406 -40.457031 1.796875 -41.71875 C 1.523438 -42.988281 1.660156 -44.085938 2.203125 -45.015625 C 2.660156 -45.753906 3.390625 -46.351562 4.390625 -46.8125 C 5.390625 -47.28125 6.320312 -47.347656 7.1875 -47.015625 L 7.78125 -46.71875 C 7.1875 -48.914062 6.554688 -51.113281 5.890625 -53.3125 C 5.222656 -55.507812 4.523438 -57.671875 3.796875 -59.796875 C 3.523438 -60.660156 3.625 -61.441406 4.09375 -62.140625 C 4.5625 -62.835938 5.160156 -63.320312 5.890625 -63.59375 C 5.828125 -64.0625 5.910156 -64.457031 6.140625 -64.78125 C 6.367188 -65.113281 6.617188 -65.414062 6.890625 -65.6875 C 8.554688 -66.820312 10.367188 -67.203125 12.328125 -66.828125 C 14.296875 -66.460938 16.078125 -65.882812 17.671875 -65.09375 C 19.335938 -64.226562 20.953125 -63.3125 22.515625 -62.34375 C 24.078125 -61.375 25.625 -60.390625 27.15625 -59.390625 C 30.28125 -57.328125 33.320312 -55.113281 36.28125 -52.75 C 39.25 -50.394531 42.160156 -47.953125 45.015625 -45.421875 C 45.816406 -44.753906 46.148438 -43.988281 46.015625 -43.125 C 46.617188 -42.125 47.019531 -41.125 47.21875 -40.125 C 47.414062 -38.726562 47.332031 -37.53125 46.96875 -36.53125 C 46.601562 -35.539062 46.054688 -34.675781 45.328125 -33.9375 Z M 33.34375 -44.625 C 31.875 -45.488281 30.425781 -46.335938 29 -47.171875 C 27.570312 -48.003906 26.125 -48.816406 24.65625 -49.609375 C 23.59375 -50.140625 22.492188 -50.6875 21.359375 -51.25 C 20.234375 -51.820312 19.101562 -52.34375 17.96875 -52.8125 C 18.5 -50.945312 19 -49.046875 19.46875 -47.109375 C 19.9375 -45.179688 20.367188 -43.253906 20.765625 -41.328125 C 22.960938 -40.597656 25.09375 -40 27.15625 -39.53125 C 28.820312 -39.195312 30.5 -38.945312 32.1875 -38.78125 C 33.882812 -38.613281 35.566406 -38.597656 37.234375 -38.734375 C 37.566406 -38.734375 37.914062 -38.75 38.28125 -38.78125 C 38.644531 -38.8125 38.960938 -38.863281 39.234375 -38.9375 L 40.03125 -39.125 C 39.894531 -39.394531 39.757812 -39.597656 39.625 -39.734375 C 38.96875 -40.796875 38.039062 -41.707031 36.84375 -42.46875 C 35.644531 -43.238281 34.476562 -43.957031 33.34375 -44.625 Z M 28.15625 -31.25 C 27.289062 -31.382812 26.390625 -31.53125 25.453125 -31.6875 C 24.523438 -31.851562 23.59375 -32.039062 22.65625 -32.25 C 22.726562 -32.113281 22.765625 -31.976562 22.765625 -31.84375 C 22.765625 -31.707031 22.796875 -31.578125 22.859375 -31.453125 C 23.054688 -31.378906 23.238281 -31.328125 23.40625 -31.296875 C 23.570312 -31.265625 23.753906 -31.25 23.953125 -31.25 C 25.890625 -30.976562 27.867188 -30.722656 29.890625 -30.484375 C 31.921875 -30.253906 33.90625 -30.242188 35.84375 -30.453125 L 39.625 -31.046875 C 39.625 -31.109375 39.273438 -31.109375 38.578125 -31.046875 C 37.878906 -30.984375 37.53125 -30.984375 37.53125 -31.046875 C 35.875 -30.847656 34.210938 -30.78125 32.546875 -30.84375 C 30.878906 -30.914062 29.414062 -31.050781 28.15625 -31.25 Z M 23.15625 -13.671875 C 23.289062 -12.015625 23.34375 -10.316406 23.3125 -8.578125 C 23.28125 -6.847656 22.863281 -5.21875 22.0625 -3.6875 L 22.265625 -3.390625 C 22.660156 -3.585938 22.992188 -3.820312 23.265625 -4.09375 C 23.992188 -5.625 24.304688 -7.21875 24.203125 -8.875 C 24.109375 -10.539062 23.894531 -12.207031 23.5625 -13.875 L 22.953125 -16.96875 C 22.890625 -16.90625 22.890625 -16.671875 22.953125 -16.265625 C 23.023438 -15.867188 23.023438 -15.671875 22.953125 -15.671875 Z M 23.15625 -13.671875 "/></g></g></g><g fill="#100a09" fill-opacity="1"><g transform="translate(125.476731, 204.035264)"><g><path d="M 36.53125 -3 C 36.132812 -3.125 35.6875 -3.816406 35.1875 -5.078125 C 34.6875 -6.347656 34.15625 -7.914062 33.59375 -9.78125 C 33.03125 -11.644531 32.5 -13.570312 32 -15.5625 C 31.5 -17.5625 31.046875 -19.359375 30.640625 -20.953125 C 30.242188 -22.554688 29.976562 -23.722656 29.84375 -24.453125 L 22.0625 -24.359375 C 21.332031 -21.359375 20.695312 -18.378906 20.15625 -15.421875 C 19.625 -12.460938 19.226562 -9.453125 18.96875 -6.390625 C 18.96875 -5.785156 18.679688 -5.484375 18.109375 -5.484375 C 17.546875 -5.484375 17.300781 -5.785156 17.375 -6.390625 C 17.632812 -9.378906 18.015625 -12.390625 18.515625 -15.421875 C 19.015625 -18.453125 19.734375 -21.429688 20.671875 -24.359375 L 19.765625 -24.359375 C 19.429688 -23.160156 19.097656 -21.710938 18.765625 -20.015625 C 18.429688 -18.316406 18.113281 -16.648438 17.8125 -15.015625 C 17.519531 -13.390625 17.269531 -12.023438 17.0625 -10.921875 C 16.863281 -9.828125 16.765625 -9.28125 16.765625 -9.28125 L 16.171875 -4.796875 C 15.972656 -2.523438 15.207031 -0.894531 13.875 0.09375 C 12.539062 1.09375 11.078125 1.492188 9.484375 1.296875 C 7.890625 1.097656 6.539062 0.332031 5.4375 -1 C 4.34375 -2.332031 3.960938 -4.160156 4.296875 -6.484375 C 4.691406 -9.410156 5.15625 -12.335938 5.6875 -15.265625 C 6.21875 -18.203125 6.851562 -21.097656 7.59375 -23.953125 C 7.125 -23.890625 6.65625 -23.84375 6.1875 -23.8125 C 5.71875 -23.78125 5.285156 -23.765625 4.890625 -23.765625 C 5.023438 -24.097656 5.054688 -24.394531 4.984375 -24.65625 C 3.390625 -25.050781 2.226562 -25.914062 1.5 -27.25 C 0.769531 -28.582031 0.566406 -30.0625 0.890625 -31.6875 C 1.222656 -33.320312 2.15625 -34.820312 3.6875 -36.1875 C 5.21875 -37.550781 7.484375 -38.46875 10.484375 -38.9375 C 11.210938 -42.257812 12.007812 -45.535156 12.875 -48.765625 C 13.738281 -51.992188 14.804688 -55.140625 16.078125 -58.203125 C 16.671875 -59.535156 17.332031 -60.984375 18.0625 -62.546875 C 18.800781 -64.109375 19.71875 -65.46875 20.8125 -66.625 C 21.914062 -67.789062 23.296875 -68.375 24.953125 -68.375 C 25.816406 -68.445312 26.679688 -68.21875 27.546875 -67.6875 C 28.410156 -67.15625 29.046875 -66.488281 29.453125 -65.6875 C 30.910156 -65.625 32.125 -65.109375 33.09375 -64.140625 C 34.0625 -63.171875 34.609375 -61.890625 34.734375 -60.296875 C 34.867188 -58.296875 35.035156 -56.28125 35.234375 -54.25 C 35.429688 -52.226562 35.632812 -50.25 35.84375 -48.3125 C 35.90625 -48.25 35.96875 -48.21875 36.03125 -48.21875 C 36.101562 -49.945312 36.1875 -51.660156 36.28125 -53.359375 C 36.382812 -55.054688 36.535156 -56.738281 36.734375 -58.40625 C 36.734375 -58.664062 36.78125 -58.0625 36.875 -56.59375 C 36.976562 -55.132812 37.097656 -53.253906 37.234375 -50.953125 C 37.367188 -48.660156 37.5 -46.363281 37.625 -44.0625 C 37.757812 -41.769531 37.929688 -39.859375 38.140625 -38.328125 C 40.066406 -38.128906 41.5625 -37.476562 42.625 -36.375 C 43.6875 -35.28125 44.347656 -34.019531 44.609375 -32.59375 C 44.878906 -31.164062 44.75 -29.75 44.21875 -28.34375 C 43.6875 -26.945312 42.722656 -25.816406 41.328125 -24.953125 C 41.992188 -22.023438 42.691406 -18.710938 43.421875 -15.015625 C 44.148438 -11.328125 44.71875 -7.984375 45.125 -4.984375 C 45.382812 -2.722656 45.195312 -1.015625 44.5625 0.140625 C 43.9375 1.304688 43.109375 1.957031 42.078125 2.09375 C 41.046875 2.226562 40.015625 1.863281 38.984375 1 C 37.953125 0.132812 37.132812 -1.195312 36.53125 -3 Z M 21.765625 -37.328125 C 22.492188 -37.460938 23.441406 -37.546875 24.609375 -37.578125 C 25.773438 -37.617188 26.691406 -37.671875 27.359375 -37.734375 C 27.222656 -38.597656 27.070312 -39.828125 26.90625 -41.421875 C 26.738281 -43.023438 26.535156 -44.738281 26.296875 -46.5625 C 26.066406 -48.394531 25.785156 -50.078125 25.453125 -51.609375 C 24.660156 -48.816406 23.960938 -46.320312 23.359375 -44.125 C 22.765625 -41.925781 22.234375 -39.660156 21.765625 -37.328125 Z M 21.765625 -37.328125 "/></g></g></g><g fill="#100a09" fill-opacity="1"><g transform="translate(168.001008, 204.035264)"><g><path d="M 47.8125 -36.234375 C 47.882812 -35.367188 48.003906 -34.550781 48.171875 -33.78125 C 48.335938 -33.019531 48.484375 -32.207031 48.609375 -31.34375 C 48.816406 -30.675781 48.753906 -30.023438 48.421875 -29.390625 C 48.085938 -28.765625 47.550781 -28.351562 46.8125 -28.15625 C 45.21875 -27.75 43.921875 -28.078125 42.921875 -29.140625 C 41.921875 -30.210938 41.171875 -31.613281 40.671875 -33.34375 C 40.179688 -35.070312 39.832031 -36.703125 39.625 -38.234375 C 39.5625 -38.234375 39.53125 -38.25 39.53125 -38.28125 C 39.53125 -38.3125 39.5 -38.328125 39.4375 -38.328125 C 37.96875 -40.460938 36.1875 -42.328125 34.09375 -43.921875 C 32 -45.515625 29.753906 -46.847656 27.359375 -47.921875 C 24.828125 -49.046875 22.226562 -49.910156 19.5625 -50.515625 L 23.65625 -46.625 C 25.257812 -45.09375 26.859375 -43.523438 28.453125 -41.921875 C 30.046875 -40.328125 31.578125 -38.695312 33.046875 -37.03125 C 34.503906 -35.5 35.960938 -33.953125 37.421875 -32.390625 C 38.890625 -30.828125 40.257812 -29.210938 41.53125 -27.546875 C 42.457031 -26.421875 43.253906 -25.222656 43.921875 -23.953125 C 44.585938 -22.691406 45.054688 -21.394531 45.328125 -20.0625 C 45.859375 -18.800781 46.253906 -17.519531 46.515625 -16.21875 C 46.785156 -14.925781 46.820312 -13.613281 46.625 -12.28125 C 46.550781 -10.144531 45.847656 -8.226562 44.515625 -6.53125 C 43.191406 -4.84375 41.53125 -3.5 39.53125 -2.5 C 37.53125 -1.5 35.46875 -0.929688 33.34375 -0.796875 L 33.046875 -0.796875 C 31.378906 -0.535156 29.628906 -0.488281 27.796875 -0.65625 C 25.972656 -0.820312 24.257812 -1.132812 22.65625 -1.59375 C 20.457031 -2.0625 18.394531 -2.925781 16.46875 -4.1875 C 16.269531 -3.320312 15.988281 -2.503906 15.625 -1.734375 C 15.257812 -0.972656 14.742188 -0.328125 14.078125 0.203125 C 13.609375 0.671875 13.023438 0.90625 12.328125 0.90625 C 11.628906 0.90625 11.015625 0.671875 10.484375 0.203125 C 9.953125 -0.328125 9.453125 -1.007812 8.984375 -1.84375 C 8.515625 -2.675781 8.21875 -3.523438 8.09375 -4.390625 C 7.820312 -4.722656 7.601562 -5.125 7.4375 -5.59375 C 7.269531 -6.0625 7.117188 -6.523438 6.984375 -6.984375 C 6.722656 -9.785156 6.304688 -12.582031 5.734375 -15.375 C 5.171875 -18.164062 4.523438 -20.925781 3.796875 -23.65625 C 3.390625 -25.1875 3.070312 -26.75 2.84375 -28.34375 C 2.613281 -29.945312 2.398438 -31.546875 2.203125 -33.140625 C 1.992188 -34.535156 1.804688 -35.984375 1.640625 -37.484375 C 1.472656 -38.984375 1.523438 -40.460938 1.796875 -41.921875 C 1.992188 -42.859375 2.441406 -43.722656 3.140625 -44.515625 C 3.835938 -45.316406 4.6875 -45.785156 5.6875 -45.921875 C 6.882812 -46.054688 7.945312 -45.890625 8.875 -45.421875 C 9.8125 -44.953125 10.476562 -44.117188 10.875 -42.921875 C 11.945312 -39.660156 12.710938 -36.300781 13.171875 -32.84375 C 13.640625 -29.382812 14.441406 -25.988281 15.578125 -22.65625 C 16.035156 -21.457031 16.582031 -20.257812 17.21875 -19.0625 C 17.851562 -17.863281 18.601562 -16.800781 19.46875 -15.875 C 20 -15.40625 20.53125 -14.90625 21.0625 -14.375 C 21.59375 -13.84375 22.160156 -13.34375 22.765625 -12.875 C 23.359375 -12.675781 23.953125 -12.523438 24.546875 -12.421875 C 25.148438 -12.328125 25.753906 -12.242188 26.359375 -12.171875 C 28.421875 -11.972656 30.550781 -11.972656 32.75 -12.171875 C 33.40625 -12.242188 34.148438 -12.363281 34.984375 -12.53125 C 35.816406 -12.695312 36.4375 -13.078125 36.84375 -13.671875 C 37.039062 -13.867188 37.140625 -14.171875 37.140625 -14.578125 C 37.398438 -15.109375 37.378906 -15.769531 37.078125 -16.5625 C 36.785156 -17.363281 36.539062 -17.96875 36.34375 -18.375 C 36.269531 -18.632812 36.164062 -18.894531 36.03125 -19.15625 C 35.90625 -19.425781 35.773438 -19.695312 35.640625 -19.96875 C 35.171875 -20.5625 34.703125 -21.15625 34.234375 -21.75 C 33.773438 -22.351562 33.28125 -22.957031 32.75 -23.5625 C 31.21875 -25.425781 29.648438 -27.253906 28.046875 -29.046875 C 26.453125 -30.847656 24.789062 -32.613281 23.0625 -34.34375 C 22.394531 -35.070312 21.726562 -35.800781 21.0625 -36.53125 C 20.394531 -37.269531 19.695312 -37.972656 18.96875 -38.640625 L 17.46875 -39.828125 C 15.132812 -41.753906 12.90625 -43.765625 10.78125 -45.859375 C 8.65625 -47.960938 6.660156 -50.210938 4.796875 -52.609375 C 3.929688 -53.867188 3.144531 -55.210938 2.4375 -56.640625 C 1.738281 -58.078125 1.59375 -59.628906 2 -61.296875 C 2.394531 -62.960938 3.257812 -64.257812 4.59375 -65.1875 C 5.925781 -66.113281 7.421875 -66.515625 9.078125 -66.390625 C 10.210938 -66.316406 11.3125 -66.128906 12.375 -65.828125 C 13.4375 -65.535156 14.503906 -65.222656 15.578125 -64.890625 C 16.035156 -65.023438 16.535156 -64.988281 17.078125 -64.78125 C 19.796875 -63.988281 22.382812 -63.023438 24.84375 -61.890625 C 27.3125 -60.765625 29.710938 -59.4375 32.046875 -57.90625 C 33.171875 -57.238281 34.265625 -56.519531 35.328125 -55.75 C 36.398438 -54.988281 37.4375 -54.140625 38.4375 -53.203125 L 38.9375 -52.703125 C 38.9375 -53.566406 38.9375 -54.414062 38.9375 -55.25 C 38.9375 -56.082031 38.898438 -56.929688 38.828125 -57.796875 C 38.828125 -59.128906 39.328125 -60.273438 40.328125 -61.234375 C 41.328125 -62.203125 42.457031 -62.6875 43.71875 -62.6875 C 45.1875 -62.6875 46.335938 -62.203125 47.171875 -61.234375 C 48.003906 -60.273438 48.484375 -59.128906 48.609375 -57.796875 C 48.941406 -55.472656 48.941406 -53.09375 48.609375 -50.65625 C 48.285156 -48.226562 48.019531 -45.851562 47.8125 -43.53125 C 47.75 -41.0625 47.75 -38.628906 47.8125 -36.234375 Z M 47.8125 -36.234375 "/></g></g></g><g fill="#100a09" fill-opacity="1"><g transform="translate(214.518245, 204.035264)"><g><path d="M 47.8125 -36.234375 C 47.882812 -35.367188 48.003906 -34.550781 48.171875 -33.78125 C 48.335938 -33.019531 48.484375 -32.207031 48.609375 -31.34375 C 48.816406 -30.675781 48.753906 -30.023438 48.421875 -29.390625 C 48.085938 -28.765625 47.550781 -28.351562 46.8125 -28.15625 C 45.21875 -27.75 43.921875 -28.078125 42.921875 -29.140625 C 41.921875 -30.210938 41.171875 -31.613281 40.671875 -33.34375 C 40.179688 -35.070312 39.832031 -36.703125 39.625 -38.234375 C 39.5625 -38.234375 39.53125 -38.25 39.53125 -38.28125 C 39.53125 -38.3125 39.5 -38.328125 39.4375 -38.328125 C 37.96875 -40.460938 36.1875 -42.328125 34.09375 -43.921875 C 32 -45.515625 29.753906 -46.847656 27.359375 -47.921875 C 24.828125 -49.046875 22.226562 -49.910156 19.5625 -50.515625 L 23.65625 -46.625 C 25.257812 -45.09375 26.859375 -43.523438 28.453125 -41.921875 C 30.046875 -40.328125 31.578125 -38.695312 33.046875 -37.03125 C 34.503906 -35.5 35.960938 -33.953125 37.421875 -32.390625 C 38.890625 -30.828125 40.257812 -29.210938 41.53125 -27.546875 C 42.457031 -26.421875 43.253906 -25.222656 43.921875 -23.953125 C 44.585938 -22.691406 45.054688 -21.394531 45.328125 -20.0625 C 45.859375 -18.800781 46.253906 -17.519531 46.515625 -16.21875 C 46.785156 -14.925781 46.820312 -13.613281 46.625 -12.28125 C 46.550781 -10.144531 45.847656 -8.226562 44.515625 -6.53125 C 43.191406 -4.84375 41.53125 -3.5 39.53125 -2.5 C 37.53125 -1.5 35.46875 -0.929688 33.34375 -0.796875 L 33.046875 -0.796875 C 31.378906 -0.535156 29.628906 -0.488281 27.796875 -0.65625 C 25.972656 -0.820312 24.257812 -1.132812 22.65625 -1.59375 C 20.457031 -2.0625 18.394531 -2.925781 16.46875 -4.1875 C 16.269531 -3.320312 15.988281 -2.503906 15.625 -1.734375 C 15.257812 -0.972656 14.742188 -0.328125 14.078125 0.203125 C 13.609375 0.671875 13.023438 0.90625 12.328125 0.90625 C 11.628906 0.90625 11.015625 0.671875 10.484375 0.203125 C 9.953125 -0.328125 9.453125 -1.007812 8.984375 -1.84375 C 8.515625 -2.675781 8.21875 -3.523438 8.09375 -4.390625 C 7.820312 -4.722656 7.601562 -5.125 7.4375 -5.59375 C 7.269531 -6.0625 7.117188 -6.523438 6.984375 -6.984375 C 6.722656 -9.785156 6.304688 -12.582031 5.734375 -15.375 C 5.171875 -18.164062 4.523438 -20.925781 3.796875 -23.65625 C 3.390625 -25.1875 3.070312 -26.75 2.84375 -28.34375 C 2.613281 -29.945312 2.398438 -31.546875 2.203125 -33.140625 C 1.992188 -34.535156 1.804688 -35.984375 1.640625 -37.484375 C 1.472656 -38.984375 1.523438 -40.460938 1.796875 -41.921875 C 1.992188 -42.859375 2.441406 -43.722656 3.140625 -44.515625 C 3.835938 -45.316406 4.6875 -45.785156 5.6875 -45.921875 C 6.882812 -46.054688 7.945312 -45.890625 8.875 -45.421875 C 9.8125 -44.953125 10.476562 -44.117188 10.875 -42.921875 C 11.945312 -39.660156 12.710938 -36.300781 13.171875 -32.84375 C 13.640625 -29.382812 14.441406 -25.988281 15.578125 -22.65625 C 16.035156 -21.457031 16.582031 -20.257812 17.21875 -19.0625 C 17.851562 -17.863281 18.601562 -16.800781 19.46875 -15.875 C 20 -15.40625 20.53125 -14.90625 21.0625 -14.375 C 21.59375 -13.84375 22.160156 -13.34375 22.765625 -12.875 C 23.359375 -12.675781 23.953125 -12.523438 24.546875 -12.421875 C 25.148438 -12.328125 25.753906 -12.242188 26.359375 -12.171875 C 28.421875 -11.972656 30.550781 -11.972656 32.75 -12.171875 C 33.40625 -12.242188 34.148438 -12.363281 34.984375 -12.53125 C 35.816406 -12.695312 36.4375 -13.078125 36.84375 -13.671875 C 37.039062 -13.867188 37.140625 -14.171875 37.140625 -14.578125 C 37.398438 -15.109375 37.378906 -15.769531 37.078125 -16.5625 C 36.785156 -17.363281 36.539062 -17.96875 36.34375 -18.375 C 36.269531 -18.632812 36.164062 -18.894531 36.03125 -19.15625 C 35.90625 -19.425781 35.773438 -19.695312 35.640625 -19.96875 C 35.171875 -20.5625 34.703125 -21.15625 34.234375 -21.75 C 33.773438 -22.351562 33.28125 -22.957031 32.75 -23.5625 C 31.21875 -25.425781 29.648438 -27.253906 28.046875 -29.046875 C 26.453125 -30.847656 24.789062 -32.613281 23.0625 -34.34375 C 22.394531 -35.070312 21.726562 -35.800781 21.0625 -36.53125 C 20.394531 -37.269531 19.695312 -37.972656 18.96875 -38.640625 L 17.46875 -39.828125 C 15.132812 -41.753906 12.90625 -43.765625 10.78125 -45.859375 C 8.65625 -47.960938 6.660156 -50.210938 4.796875 -52.609375 C 3.929688 -53.867188 3.144531 -55.210938 2.4375 -56.640625 C 1.738281 -58.078125 1.59375 -59.628906 2 -61.296875 C 2.394531 -62.960938 3.257812 -64.257812 4.59375 -65.1875 C 5.925781 -66.113281 7.421875 -66.515625 9.078125 -66.390625 C 10.210938 -66.316406 11.3125 -66.128906 12.375 -65.828125 C 13.4375 -65.535156 14.503906 -65.222656 15.578125 -64.890625 C 16.035156 -65.023438 16.535156 -64.988281 17.078125 -64.78125 C 19.796875 -63.988281 22.382812 -63.023438 24.84375 -61.890625 C 27.3125 -60.765625 29.710938 -59.4375 32.046875 -57.90625 C 33.171875 -57.238281 34.265625 -56.519531 35.328125 -55.75 C 36.398438 -54.988281 37.4375 -54.140625 38.4375 -53.203125 L 38.9375 -52.703125 C 38.9375 -53.566406 38.9375 -54.414062 38.9375 -55.25 C 38.9375 -56.082031 38.898438 -56.929688 38.828125 -57.796875 C 38.828125 -59.128906 39.328125 -60.273438 40.328125 -61.234375 C 41.328125 -62.203125 42.457031 -62.6875 43.71875 -62.6875 C 45.1875 -62.6875 46.335938 -62.203125 47.171875 -61.234375 C 48.003906 -60.273438 48.484375 -59.128906 48.609375 -57.796875 C 48.941406 -55.472656 48.941406 -53.09375 48.609375 -50.65625 C 48.285156 -48.226562 48.019531 -45.851562 47.8125 -43.53125 C 47.75 -41.0625 47.75 -38.628906 47.8125 -36.234375 Z M 47.8125 -36.234375 "/></g></g></g><g fill="#100a09" fill-opacity="1"><g transform="translate(261.035491, 204.035264)"><g><path d="M 37.734375 -42.828125 C 38.265625 -39.765625 38.597656 -36.664062 38.734375 -33.53125 C 38.867188 -30.40625 38.769531 -27.28125 38.4375 -24.15625 C 38.164062 -21.425781 37.726562 -18.613281 37.125 -15.71875 C 36.53125 -12.820312 35.398438 -10.210938 33.734375 -7.890625 C 33.203125 -7.148438 32.632812 -6.429688 32.03125 -5.734375 C 31.4375 -5.035156 30.773438 -4.390625 30.046875 -3.796875 C 29.117188 -2.859375 28.070312 -2.070312 26.90625 -1.4375 C 25.738281 -0.8125 24.457031 -0.398438 23.0625 -0.203125 C 22 -0.128906 20.898438 -0.128906 19.765625 -0.203125 C 18.097656 0.0664062 16.398438 -0.0625 14.671875 -0.59375 C 12.941406 -1.125 11.410156 -1.925781 10.078125 -3 C 7.753906 -4.988281 6.023438 -7.394531 4.890625 -10.21875 C 3.753906 -13.050781 2.921875 -15.9375 2.390625 -18.875 C 1.398438 -25.257812 1.398438 -31.644531 2.390625 -38.03125 C 3.390625 -44.425781 5.554688 -50.414062 8.890625 -56 C 8.890625 -56 8.953125 -56.066406 9.078125 -56.203125 C 10.078125 -58.867188 11.410156 -61.265625 13.078125 -63.390625 C 13.140625 -63.523438 13.203125 -63.570312 13.265625 -63.53125 C 13.335938 -63.5 13.34375 -63.421875 13.28125 -63.296875 C 13.007812 -62.828125 12.722656 -62.34375 12.421875 -61.84375 C 12.128906 -61.34375 11.882812 -60.828125 11.6875 -60.296875 C 11.414062 -59.765625 11.179688 -59.210938 10.984375 -58.640625 C 10.785156 -58.078125 10.582031 -57.53125 10.375 -57 C 10.507812 -57.070312 10.660156 -57.085938 10.828125 -57.046875 C 10.992188 -57.015625 11.113281 -57 11.1875 -57 C 12.050781 -58.863281 13.082031 -60.492188 14.28125 -61.890625 C 15.476562 -63.285156 16.875 -64.148438 18.46875 -64.484375 C 19.132812 -64.753906 19.78125 -64.972656 20.40625 -65.140625 C 21.039062 -65.304688 21.691406 -65.351562 22.359375 -65.28125 C 23.085938 -65.414062 23.832031 -65.46875 24.59375 -65.4375 C 25.363281 -65.40625 26.050781 -65.222656 26.65625 -64.890625 C 27.320312 -64.492188 27.90625 -63.925781 28.40625 -63.1875 C 28.90625 -62.457031 29.320312 -61.757812 29.65625 -61.09375 C 30.050781 -61.226562 30.460938 -61.242188 30.890625 -61.140625 C 31.328125 -61.046875 31.675781 -60.765625 31.9375 -60.296875 C 32.675781 -58.960938 33.378906 -57.597656 34.046875 -56.203125 C 34.710938 -54.804688 35.273438 -53.375 35.734375 -51.90625 C 36.203125 -50.445312 36.582031 -48.953125 36.875 -47.421875 C 37.175781 -45.890625 37.460938 -44.359375 37.734375 -42.828125 Z M 25.25 -13.78125 C 26.113281 -16.101562 26.710938 -18.492188 27.046875 -20.953125 C 27.378906 -23.421875 27.546875 -25.882812 27.546875 -28.34375 C 27.347656 -30.875 27.148438 -33.382812 26.953125 -35.875 C 26.753906 -38.375 26.457031 -40.859375 26.0625 -43.328125 C 25.925781 -44.054688 25.789062 -44.800781 25.65625 -45.5625 C 25.519531 -46.332031 25.382812 -47.050781 25.25 -47.71875 C 24.988281 -48.644531 24.691406 -49.539062 24.359375 -50.40625 C 24.023438 -51.28125 23.691406 -52.148438 23.359375 -53.015625 C 23.222656 -53.347656 23.070312 -53.710938 22.90625 -54.109375 C 22.738281 -54.503906 22.554688 -54.867188 22.359375 -55.203125 C 22.222656 -55.335938 22.09375 -55.40625 21.96875 -55.40625 L 21.46875 -55.40625 C 21.195312 -54.875 20.941406 -54.304688 20.703125 -53.703125 C 20.472656 -53.109375 20.296875 -52.546875 20.171875 -52.015625 C 19.628906 -50.210938 19.140625 -48.394531 18.703125 -46.5625 C 18.273438 -44.738281 17.929688 -42.859375 17.671875 -40.921875 C 17.203125 -37.265625 17 -33.539062 17.0625 -29.75 C 17.132812 -25.957031 17.46875 -22.195312 18.0625 -18.46875 C 18.269531 -17.332031 18.140625 -16.332031 17.671875 -15.46875 C 16.273438 -21.988281 15.722656 -28.726562 16.015625 -35.6875 C 16.316406 -42.644531 17.898438 -49.117188 20.765625 -55.109375 C 20.492188 -54.910156 20.242188 -54.625 20.015625 -54.25 C 19.785156 -53.882812 19.566406 -53.535156 19.359375 -53.203125 C 18.429688 -51.335938 17.632812 -49.40625 16.96875 -47.40625 C 16.300781 -45.414062 15.769531 -43.390625 15.375 -41.328125 C 15.238281 -41.054688 15.171875 -40.921875 15.171875 -40.921875 C 14.972656 -39.796875 14.820312 -38.648438 14.71875 -37.484375 C 14.625 -36.316406 14.507812 -35.171875 14.375 -34.046875 C 14.238281 -30.648438 14.351562 -27.269531 14.71875 -23.90625 C 15.09375 -20.550781 15.644531 -17.238281 16.375 -13.96875 C 16.039062 -13.707031 15.675781 -13.546875 15.28125 -13.484375 C 14.082031 -13.210938 12.914062 -13.410156 11.78125 -14.078125 C 12.3125 -13.015625 13.039062 -11.914062 13.96875 -10.78125 C 14.90625 -9.644531 15.988281 -8.796875 17.21875 -8.234375 C 18.445312 -7.671875 19.757812 -7.585938 21.15625 -7.984375 C 22.289062 -8.378906 23.191406 -9.175781 23.859375 -10.375 C 24.191406 -10.914062 24.472656 -11.46875 24.703125 -12.03125 C 24.941406 -12.59375 25.125 -13.175781 25.25 -13.78125 Z M 25.25 -13.78125 "/></g></g></g><g fill="#f8f8ff" fill-opacity="1"><g transform="translate(73.512648, 243.295765)"><g><path d="M 25.265625 0.890625 C 22.109375 0.890625 19.140625 0.3125 16.359375 -0.84375 C 13.578125 -2.007812 11.164062 -3.601562 9.125 -5.625 C 7.082031 -7.644531 5.460938 -10.054688 4.265625 -12.859375 C 3.066406 -15.660156 2.46875 -18.703125 2.46875 -21.984375 L 2.46875 -22.109375 C 2.46875 -25.304688 3.054688 -28.316406 4.234375 -31.140625 C 5.410156 -33.960938 7.019531 -36.394531 9.0625 -38.4375 C 11.101562 -40.476562 13.554688 -42.097656 16.421875 -43.296875 C 19.285156 -44.503906 22.382812 -45.109375 25.71875 -45.109375 C 30.21875 -45.109375 33.984375 -44.242188 37.015625 -42.515625 C 40.046875 -40.785156 42.53125 -38.59375 44.46875 -35.9375 L 35.25 -28.8125 C 33.988281 -30.363281 32.585938 -31.613281 31.046875 -32.5625 C 29.515625 -33.507812 27.691406 -33.984375 25.578125 -33.984375 C 24.023438 -33.984375 22.601562 -33.664062 21.3125 -33.03125 C 20.03125 -32.40625 18.925781 -31.566406 18 -30.515625 C 17.070312 -29.460938 16.34375 -28.21875 15.8125 -26.78125 C 15.289062 -25.351562 15.03125 -23.835938 15.03125 -22.234375 L 15.03125 -22.109375 C 15.03125 -20.460938 15.289062 -18.910156 15.8125 -17.453125 C 16.34375 -16.003906 17.070312 -14.753906 18 -13.703125 C 18.925781 -12.648438 20.03125 -11.816406 21.3125 -11.203125 C 22.601562 -10.597656 24.023438 -10.296875 25.578125 -10.296875 C 27.859375 -10.296875 29.765625 -10.789062 31.296875 -11.78125 C 32.835938 -12.769531 34.257812 -14.066406 35.5625 -15.671875 L 44.78125 -9.09375 C 42.71875 -6.226562 40.160156 -3.847656 37.109375 -1.953125 C 34.054688 -0.0546875 30.109375 0.890625 25.265625 0.890625 Z M 25.265625 0.890625 "/></g></g></g><g fill="#f8f8ff" fill-opacity="1"><g transform="translate(119.685573, 243.295765)"><g><path d="M 3.921875 0 L 3.921875 -44.21875 L 39.484375 -44.21875 L 39.484375 -33.859375 L 16.046875 -33.859375 L 16.046875 -27.09375 L 37.265625 -27.09375 L 37.265625 -17.4375 L 16.046875 -17.4375 L 16.046875 -10.421875 L 39.796875 -10.421875 L 39.796875 0 Z M 3.921875 0 "/></g></g></g><g fill="#f8f8ff" fill-opacity="1"><g transform="translate(161.879159, 243.295765)"><g><path d="M 3.921875 0 L 3.921875 -44.21875 L 24.828125 -44.21875 C 28.191406 -44.21875 31.0625 -43.796875 33.4375 -42.953125 C 35.820312 -42.109375 37.753906 -40.953125 39.234375 -39.484375 C 40.535156 -38.179688 41.507812 -36.675781 42.15625 -34.96875 C 42.8125 -33.257812 43.140625 -31.332031 43.140625 -29.1875 L 43.140625 -29.0625 C 43.140625 -25.644531 42.304688 -22.8125 40.640625 -20.5625 C 38.984375 -18.3125 36.785156 -16.59375 34.046875 -15.40625 L 44.59375 0 L 30.515625 0 L 21.609375 -13.390625 L 16.171875 -13.390625 L 16.171875 0 Z M 16.171875 -23 L 24.328125 -23 C 26.390625 -23 28 -23.472656 29.15625 -24.421875 C 30.3125 -25.367188 30.890625 -26.640625 30.890625 -28.234375 L 30.890625 -28.359375 C 30.890625 -30.128906 30.289062 -31.457031 29.09375 -32.34375 C 27.894531 -33.226562 26.285156 -33.671875 24.265625 -33.671875 L 16.171875 -33.671875 Z M 16.171875 -23 "/></g></g></g><g fill="#f8f8ff" fill-opacity="1"><g transform="translate(207.294107, 243.295765)"><g><path d="M 14.71875 0 L 14.71875 -33.484375 L 1.515625 -33.484375 L 1.515625 -44.21875 L 40.234375 -44.21875 L 40.234375 -33.484375 L 26.96875 -33.484375 L 26.96875 0 Z M 14.71875 0 "/></g></g></g><g fill="#f8f8ff" fill-opacity="1"><g transform="translate(248.982379, 243.295765)"><g><path d="M 26.21875 0.890625 C 22.800781 0.890625 19.640625 0.289062 16.734375 -0.90625 C 13.828125 -2.113281 11.320312 -3.738281 9.21875 -5.78125 C 7.113281 -7.820312 5.460938 -10.242188 4.265625 -13.046875 C 3.066406 -15.847656 2.46875 -18.828125 2.46875 -21.984375 L 2.46875 -22.109375 C 2.46875 -25.265625 3.078125 -28.242188 4.296875 -31.046875 C 5.515625 -33.847656 7.175781 -36.289062 9.28125 -38.375 C 11.382812 -40.457031 13.898438 -42.097656 16.828125 -43.296875 C 19.753906 -44.503906 22.925781 -45.109375 26.34375 -45.109375 C 29.75 -45.109375 32.90625 -44.503906 35.8125 -43.296875 C 38.71875 -42.097656 41.222656 -40.476562 43.328125 -38.4375 C 45.441406 -36.394531 47.097656 -33.972656 48.296875 -31.171875 C 49.492188 -28.367188 50.09375 -25.390625 50.09375 -22.234375 L 50.09375 -22.109375 C 50.09375 -18.953125 49.484375 -15.972656 48.265625 -13.171875 C 47.046875 -10.367188 45.378906 -7.925781 43.265625 -5.84375 C 41.160156 -3.757812 38.644531 -2.113281 35.71875 -0.90625 C 32.789062 0.289062 29.625 0.890625 26.21875 0.890625 Z M 26.34375 -10.171875 C 28.03125 -10.171875 29.554688 -10.484375 30.921875 -11.109375 C 32.285156 -11.742188 33.453125 -12.597656 34.421875 -13.671875 C 35.390625 -14.742188 36.148438 -15.992188 36.703125 -17.421875 C 37.253906 -18.859375 37.53125 -20.378906 37.53125 -21.984375 L 37.53125 -22.109375 C 37.53125 -23.710938 37.253906 -25.238281 36.703125 -26.6875 C 36.148438 -28.144531 35.378906 -29.410156 34.390625 -30.484375 C 33.398438 -31.554688 32.210938 -32.414062 30.828125 -33.0625 C 29.441406 -33.71875 27.90625 -34.046875 26.21875 -34.046875 C 24.53125 -34.046875 22.988281 -33.726562 21.59375 -33.09375 C 20.207031 -32.46875 19.03125 -31.617188 18.0625 -30.546875 C 17.09375 -29.472656 16.332031 -28.21875 15.78125 -26.78125 C 15.238281 -25.351562 14.96875 -23.835938 14.96875 -22.234375 L 14.96875 -22.109375 C 14.96875 -20.503906 15.238281 -18.972656 15.78125 -17.515625 C 16.332031 -16.066406 17.101562 -14.804688 18.09375 -13.734375 C 19.082031 -12.660156 20.28125 -11.796875 21.6875 -11.140625 C 23.101562 -10.492188 24.65625 -10.171875 26.34375 -10.171875 Z M 26.34375 -10.171875 "/></g></g></g><path stroke-linecap="butt" transform="matrix(0.966818, 0, 0, 0.966818, 35.353413, 97.187528)" fill="none" stroke-linejoin="miter" d="M 84.812365 67.881292 C 83.903294 69.545902 82.642716 70.774158 81.030631 71.562019 C 79.418545 72.35392 77.644847 72.814516 75.713577 72.947847 C 73.778266 73.085217 71.830835 73.048854 69.863202 72.850879 C 67.91173 72.648863 66.150153 72.402404 64.57039 72.119582 C 64.081512 71.982212 63.612836 71.881204 63.15628 71.816559 C 62.719926 71.747873 62.25933 71.679188 61.770452 71.614543 C 61.903783 72.236751 62.041153 72.85896 62.174484 73.477128 C 62.323975 74.083175 62.433064 74.66498 62.501749 75.218503 C 62.990627 77.771982 63.451223 80.329501 63.887577 82.88298 C 64.340092 85.420297 64.70372 87.957614 64.970381 90.494932 C 65.107752 91.739349 65.140074 92.999927 65.071389 94.276666 C 65.006744 95.553405 64.804728 96.77358 64.469382 97.933151 C 63.980504 99.662405 62.946184 101.250249 61.366421 102.696681 C 60.812898 103.169398 60.06544 103.553228 59.124046 103.856251 C 58.198814 104.175436 57.435195 103.957259 56.829148 103.20172 C 56.275625 102.446182 55.948359 101.605796 55.847351 100.680564 C 55.746344 99.755332 55.621094 98.842221 55.467562 97.933151 C 55.398876 97.310942 55.31807 96.680653 55.217062 96.042283 C 55.116054 95.387753 55.031208 94.71302 54.962523 94.026167 C 54.477685 92.361557 54.065573 90.60402 53.730227 88.757597 C 53.794872 89.31112 53.863557 89.848482 53.928202 90.369682 C 53.996887 90.874721 54.065573 91.404003 54.130218 91.957526 C 54.267588 92.850435 54.384758 93.739304 54.485765 94.632214 C 54.602935 95.521083 54.728184 96.422073 54.861515 97.327103 C 54.9302 98.017997 55.015047 98.721012 55.116054 99.444228 C 55.217062 100.167444 55.164538 100.842177 54.962523 101.460345 C 54.962523 101.52903 54.9302 101.52903 54.861515 101.460345 C 54.441322 100.842177 54.198903 100.102799 54.130218 99.242212 C 54.065573 98.369505 53.964565 97.589724 53.831235 96.89883 L 52.897922 91.529252 C 52.627221 89.747474 52.348439 87.981856 52.065617 86.236441 C 51.794916 84.470823 51.520175 82.689045 51.233312 80.891105 C 50.897966 78.757819 50.570701 76.628573 50.251516 74.511448 C 49.948492 72.378162 49.629308 70.244876 49.289921 68.10755 C 45.980904 66.798488 42.813297 65.352056 39.787102 63.772293 C 39.718416 63.687446 39.718416 63.61472 39.787102 63.546035 C 39.855787 63.47735 39.920432 63.47735 39.989118 63.546035 C 41.500195 64.236929 43.031474 64.907621 44.578915 65.562152 C 46.122315 66.216683 47.653594 66.82273 49.164671 67.380293 C 49.100026 67.024746 49.031341 66.713642 48.962656 66.446981 C 48.898011 66.17628 48.829325 65.897498 48.76064 65.614676 C 47.584909 65.141959 46.425338 64.649041 45.281929 64.12784 C 44.158722 63.60664 43.015313 63.101601 41.855743 62.612723 C 40.744656 62.075361 40.049722 61.150129 39.76286 59.841067 C 39.492159 58.527965 39.63761 57.396677 40.191133 56.439122 C 40.680011 55.679543 41.43555 55.057335 42.45775 54.572497 C 43.500151 54.083619 44.469826 54.018974 45.358695 54.370481 L 45.964742 54.673505 C 45.358695 52.402848 44.712245 50.136232 44.021351 47.865575 C 43.334498 45.594918 42.611282 43.360625 41.855743 41.158653 C 41.56888 40.253623 41.669888 39.437479 42.158766 38.714263 C 42.643604 37.991047 43.265812 37.498129 44.021351 37.227427 C 43.956706 36.738549 44.037513 36.326437 44.275891 35.991091 C 44.510229 35.639584 44.768809 35.32848 45.055672 35.057779 C 46.768765 33.882047 48.643471 33.486096 50.679789 33.873967 C 52.712067 34.245675 54.55041 34.839602 56.198859 35.663826 C 57.911952 36.572897 59.576562 37.52237 61.192687 38.512247 C 62.820934 39.506165 64.424939 40.520284 66.004702 41.562685 C 69.249074 43.695971 72.400519 45.990869 75.459037 48.44738 C 78.517555 50.88369 81.527589 53.404846 84.485099 56.006809 C 85.309324 56.697702 85.65275 57.497685 85.51942 58.402715 C 86.141628 59.428955 86.55374 60.455195 86.751716 61.477394 C 86.973933 62.923827 86.889087 64.168244 86.501216 65.210645 C 86.133548 66.236884 85.567904 67.125754 84.812365 67.881292 Z M 72.4086 56.839113 C 70.897522 55.950244 69.402606 55.077536 67.919811 54.216949 C 66.441056 53.344241 64.946139 52.495775 63.435062 51.671551 C 62.323975 51.134189 61.180566 50.572586 60.004835 49.9827 C 58.845265 49.396854 57.677614 48.855452 56.501882 48.370614 C 57.055405 50.301885 57.568525 52.269518 58.041242 54.269473 C 58.52608 56.253268 58.978595 58.245143 59.398788 60.245098 C 61.669444 61.000637 63.871416 61.622846 66.004702 62.107683 C 67.737997 62.44707 69.475332 62.70565 71.224788 62.891504 C 72.970204 63.057157 74.711579 63.077359 76.440834 62.939988 C 76.78022 62.939988 77.131727 62.923827 77.503436 62.891504 C 77.887266 62.859182 78.222612 62.806658 78.509475 62.737972 L 79.317537 62.511715 C 79.180167 62.245054 79.046836 62.043038 78.913506 61.909708 C 78.222612 60.798621 77.256977 59.849148 76.01256 59.057246 C 74.788345 58.269385 73.584331 57.530007 72.4086 56.839113 Z M 67.039022 70.68123 C 66.150153 70.5479 65.21684 70.394368 64.239084 70.228715 C 63.28153 70.042861 62.323975 69.848926 61.366421 69.64691 C 61.435106 69.78024 61.467429 69.925691 61.467429 70.075183 C 61.467429 70.208514 61.499751 70.345884 61.568436 70.479215 C 61.770452 70.5479 61.956307 70.596384 62.12196 70.628706 C 62.307814 70.665069 62.501749 70.68123 62.703765 70.68123 C 64.70372 70.947891 66.75216 71.210511 68.853123 71.461011 C 70.954087 71.699389 72.998486 71.715551 74.98228 71.513535 L 78.913506 70.883246 C 78.913506 70.814561 78.553918 70.814561 77.830702 70.883246 C 77.107485 70.947891 76.743857 70.947891 76.743857 70.883246 C 75.030764 71.085262 73.30959 71.149907 71.576295 71.085262 C 69.863202 71.016576 68.352124 70.883246 67.039022 70.68123 Z M 61.87146 88.858605 C 62.00479 90.571698 62.057315 92.329235 62.020952 94.127174 C 61.988629 95.908953 61.560356 97.589724 60.736132 99.169487 L 60.938147 99.496752 C 61.35834 99.278575 61.701767 99.032116 61.972468 98.765455 C 62.728007 97.185692 63.055272 95.537244 62.954264 93.824151 C 62.853256 92.090856 62.635079 90.369682 62.299733 88.656589 L 61.669444 85.45262 C 61.600759 85.521305 61.600759 85.763724 61.669444 86.183916 C 61.73813 86.587948 61.73813 86.789964 61.669444 86.789964 Z M 119.797447 99.900784 C 119.393415 99.763413 118.93282 99.040197 118.411619 97.731135 C 117.890419 96.422073 117.336895 94.805947 116.74701 92.890838 C 116.161164 90.959568 115.603601 88.959612 115.0824 86.890971 C 114.581401 84.822331 114.116765 82.967826 113.696572 81.319378 C 113.292541 79.67093 113.02588 78.462876 112.89255 77.691176 L 104.824042 77.816425 C 104.068503 80.907266 103.413972 83.981945 102.856409 87.040463 C 102.319047 90.098981 101.906935 93.218104 101.624113 96.393791 C 101.624113 97.015999 101.32917 97.327103 100.739284 97.327103 C 100.1696 97.327103 99.91506 97.015999 99.983745 96.393791 C 100.254446 93.30295 100.646357 90.191908 101.167557 87.068745 C 101.688758 83.925381 102.428136 80.838581 103.38569 77.816425 L 102.452377 77.816425 C 102.117031 79.040641 101.773605 80.539597 101.422097 82.301174 C 101.082711 84.05063 100.755445 85.771804 100.436261 87.468736 C 100.133237 89.149507 99.874657 90.563617 99.65648 91.707026 C 99.454464 92.830234 99.353456 93.395878 99.353456 93.395878 L 98.747409 98.034158 C 98.529232 100.385621 97.73329 102.074473 96.351503 103.100713 C 94.973756 104.143114 93.462678 104.555226 91.81423 104.337049 C 90.169822 104.135033 88.771873 103.343131 87.632504 101.965384 C 86.505257 100.587637 86.109306 98.69677 86.444652 96.292783 C 86.864845 93.270628 87.345642 90.244432 87.883004 87.218237 C 88.436527 84.17588 89.091058 81.177967 89.850637 78.220457 C 89.37792 78.285102 88.901163 78.337626 88.412285 78.369948 C 87.923407 78.402271 87.478972 78.418432 87.074941 78.418432 C 87.212312 78.083086 87.244634 77.771982 87.175949 77.48916 C 85.511339 77.085129 84.303285 76.192219 83.547747 74.814472 C 82.792208 73.436725 82.582111 71.909486 82.917458 70.228715 C 83.268965 68.527743 84.2346 66.976262 85.814363 65.562152 C 87.410287 64.152082 89.75771 63.210689 92.84855 62.737972 C 93.604089 59.295624 94.428313 55.89772 95.321223 52.55638 C 96.226253 49.211 97.329259 45.958547 98.622159 42.799021 C 99.244368 41.421274 99.931221 39.926357 100.6908 38.310232 C 101.446339 36.698146 102.395813 35.284036 103.539222 34.075982 C 104.682631 32.863888 106.108862 32.261881 107.821955 32.261881 C 108.714865 32.193196 109.603734 32.435615 110.496643 32.993178 C 111.401674 33.546701 112.060245 34.237595 112.464276 35.057779 C 113.975354 35.126464 115.227851 35.663826 116.217728 36.673904 C 117.227807 37.663781 117.797491 38.984964 117.934862 40.629372 C 118.084354 42.698013 118.262127 44.782815 118.464143 46.883779 C 118.666159 48.984742 118.864134 51.033182 119.06615 53.033137 C 119.150997 53.101823 119.227763 53.134145 119.292408 53.134145 C 119.361093 51.336205 119.44594 49.562507 119.546947 47.817091 C 119.647955 46.051474 119.797447 44.310099 119.999463 42.597005 C 119.999463 42.310143 120.051987 42.932351 120.152995 44.46363 C 120.270164 45.974708 120.395413 47.918099 120.528744 50.285723 C 120.666115 52.657388 120.799445 55.033093 120.932775 57.420919 C 121.066106 59.788543 121.243879 61.764257 121.462056 63.344019 C 123.445851 63.546035 124.993291 64.216727 126.100337 65.360136 C 127.211424 66.503545 127.898277 67.816647 128.168978 69.295402 C 128.435639 70.774158 128.294228 72.236751 127.740705 73.679144 C 127.203343 75.125576 126.209426 76.293227 124.762993 77.186136 C 125.453887 80.208292 126.177103 83.638518 126.932642 87.468736 C 127.688181 91.286833 128.269986 94.741302 128.674018 97.832143 C 128.95684 100.167444 128.775025 101.941142 128.116454 103.153237 C 127.461923 104.361291 126.597296 105.031983 125.522572 105.169354 C 124.46401 105.302684 123.393327 104.922894 122.318603 104.034025 C 121.260041 103.141116 120.419655 101.763369 119.797447 99.900784 Z M 104.521018 64.37834 C 105.276557 64.24501 106.254313 64.160163 107.446206 64.12784 C 108.65426 64.091478 109.603734 64.042994 110.294628 63.974308 C 110.161297 63.069278 110.007765 61.788498 109.842112 60.14409 C 109.672419 58.495642 109.462323 56.730025 109.211823 54.847238 C 108.973445 52.948291 108.682542 51.202875 108.326994 49.606951 C 107.50277 52.495775 106.783594 55.085617 106.161386 57.368394 C 105.555339 59.639051 105.009896 61.974353 104.521018 64.37834 Z M 175.452777 65.513668 C 175.521462 66.402537 175.638632 67.251003 175.808325 68.059066 C 175.994179 68.846928 176.151751 69.687313 176.285082 70.580222 C 176.487098 71.267076 176.414372 71.941808 176.058824 72.596339 C 175.723478 73.25087 175.178036 73.679144 174.422497 73.881159 C 172.774049 74.301352 171.428624 73.957925 170.386223 72.850879 C 169.364023 71.739793 168.588283 70.29336 168.067082 68.511581 C 167.545882 66.713642 167.186294 65.02479 166.984278 63.445027 C 166.915593 63.445027 166.88327 63.428866 166.88327 63.396544 C 166.88327 63.360181 166.850948 63.344019 166.782263 63.344019 C 165.271185 61.142048 163.428802 59.218858 161.263193 57.57041 C 159.093544 55.905801 156.766323 54.528054 154.27749 53.437169 C 151.671487 52.261437 148.992758 51.360447 146.237264 50.738239 L 150.471513 54.774513 C 152.119962 56.354276 153.76437 57.974442 155.412818 59.639051 C 157.077427 61.287499 158.665271 62.96827 160.176349 64.681363 C 161.691466 66.277288 163.202544 67.881292 164.713622 69.497418 C 166.228739 71.109504 167.638809 72.782194 168.951911 74.511448 C 169.909466 75.671019 170.73369 76.907355 171.420543 78.220457 C 172.111437 79.529519 172.596275 80.874943 172.883137 82.252691 C 173.420499 83.561752 173.82453 84.891016 174.091191 86.236441 C 174.378053 87.561664 174.422497 88.915169 174.220481 90.292916 C 174.151796 92.494887 173.42858 94.478682 172.050832 96.244299 C 170.673085 97.989715 168.951911 99.387664 166.88327 100.430065 C 164.814629 101.452264 162.681343 102.03407 160.479372 102.1674 L 160.176349 102.1674 C 158.447094 102.454262 156.632993 102.510827 154.730005 102.345174 C 152.851259 102.159319 151.085641 101.823973 149.437193 101.335095 C 147.170577 100.866419 145.03325 99.973509 143.033295 98.664447 C 142.831279 99.553317 142.540376 100.393702 142.152506 101.185604 C 141.764636 101.973465 141.235355 102.648197 140.564663 103.20172 C 140.075785 103.690599 139.469737 103.933017 138.750562 103.933017 C 138.027345 103.933017 137.388976 103.690599 136.831412 103.20172 C 136.277889 102.648197 135.756689 101.941142 135.271851 101.084596 C 134.799134 100.228049 134.496111 99.351301 134.36278 98.462432 C 134.075918 98.110924 133.84966 97.698812 133.679967 97.226096 C 133.514314 96.741258 133.360782 96.25238 133.227452 95.763502 C 132.94059 92.874677 132.504236 89.981812 131.91839 87.092987 C 131.344665 84.200122 130.682054 81.34362 129.926515 78.51944 C 129.506322 76.939677 129.170976 75.327592 128.916436 73.679144 C 128.682098 72.018574 128.463921 70.362045 128.261905 68.713597 C 128.05989 67.267165 127.865955 65.772248 127.6801 64.228848 C 127.514447 62.681408 127.571012 61.150129 127.857874 59.639051 C 128.05989 58.665335 128.520486 57.764345 129.243702 56.940121 C 129.966918 56.115897 130.839626 55.63914 131.865866 55.50581 C 133.110283 55.368439 134.209248 55.546213 135.170843 56.035091 C 136.144559 56.503767 136.831412 57.360314 137.235444 58.604731 C 138.34653 61.966272 139.134391 65.436902 139.607108 69.016621 C 140.091946 72.596339 140.924251 76.107372 142.099982 79.553761 C 142.58886 80.798177 143.150464 82.042594 143.788834 83.287011 C 144.447405 84.511226 145.227185 85.614232 146.136256 86.587948 C 146.673618 87.060665 147.21906 87.569744 147.772583 88.127308 C 148.330147 88.680831 148.915992 89.202031 149.538201 89.690909 C 150.160409 89.888885 150.774537 90.042417 151.380584 90.143425 C 152.002793 90.244432 152.620961 90.329279 153.243169 90.393924 C 155.380495 90.612101 157.582467 90.612101 159.849083 90.393924 C 160.539977 90.329279 161.311677 90.21211 162.168224 90.042417 C 163.040931 89.872723 163.683341 89.480813 164.083333 88.858605 C 164.30151 88.656589 164.410598 88.345485 164.410598 87.925292 C 164.681299 87.371769 164.657057 86.680875 164.337872 85.856651 C 164.034849 85.032427 163.780309 84.410218 163.582334 83.990026 C 163.513648 83.723365 163.40456 83.452664 163.251028 83.186003 C 163.117697 82.899141 162.984367 82.620359 162.851037 82.353698 C 162.37832 81.73149 161.901563 81.109282 161.412685 80.487073 C 160.923807 79.864865 160.402606 79.242656 159.849083 78.620448 C 158.26932 76.705339 156.657235 74.814472 155.008786 72.947847 C 153.360338 71.085262 151.639164 69.25904 149.841224 67.477261 C 149.150331 66.721722 148.463477 65.966183 147.772583 65.210645 C 147.08573 64.455106 146.362514 63.73189 145.606975 63.040996 L 144.067615 61.8087 C 141.647467 59.808744 139.336407 57.723942 137.134436 55.554293 C 134.932464 53.388685 132.875944 51.057423 130.960835 48.57263 C 130.051765 47.275689 129.235621 45.889861 128.512405 44.411106 C 127.789189 42.91619 127.639697 41.312185 128.05989 39.595052 C 128.463921 37.881958 129.35279 36.544614 130.730538 35.58706 C 132.108285 34.613344 133.663806 34.193151 135.397101 34.326482 C 136.556671 34.395167 137.679878 34.589102 138.774803 34.908287 C 139.88185 35.211311 140.992936 35.538576 142.099982 35.890083 C 142.58886 35.740592 143.10198 35.772914 143.639342 35.991091 C 146.463522 36.815315 149.14225 37.817313 151.679567 38.993045 C 154.237086 40.152615 156.72188 41.522282 159.142028 43.102045 C 160.301598 43.788898 161.436927 44.528275 162.548013 45.320177 C 163.655059 46.108038 164.721702 46.992867 165.747942 47.966583 L 166.252981 48.471622 C 166.252981 47.578713 166.252981 46.706005 166.252981 45.849458 C 166.252981 44.992912 166.220659 44.108083 166.151973 43.203052 C 166.151973 41.841466 166.665093 40.665735 167.691333 39.671818 C 168.733734 38.665779 169.909466 38.16074 171.218528 38.16074 C 172.733646 38.16074 173.917458 38.665779 174.774004 39.671818 C 175.646712 40.665735 176.151751 41.841466 176.285082 43.203052 C 176.624468 45.623201 176.612347 48.091833 176.26084 50.612989 C 175.925494 53.117984 175.654793 55.570455 175.452777 57.974442 C 175.388132 60.52792 175.388132 63.040996 175.452777 65.513668 Z M 223.568881 65.513668 C 223.633526 66.402537 223.754735 67.251003 223.920388 68.059066 C 224.106243 68.846928 224.263815 69.687313 224.401185 70.580222 C 224.603201 71.267076 224.526435 71.941808 224.174928 72.596339 C 223.835541 73.25087 223.290099 73.679144 222.53456 73.881159 C 220.886112 74.301352 219.544728 73.957925 218.502327 72.850879 C 217.476087 71.739793 216.704387 70.29336 216.183186 68.511581 C 215.661986 66.713642 215.298357 65.02479 215.096342 63.445027 C 215.031696 63.445027 214.995334 63.428866 214.995334 63.396544 C 214.995334 63.360181 214.963011 63.344019 214.894326 63.344019 C 213.383248 61.142048 211.544905 59.218858 209.375256 57.57041 C 207.205608 55.905801 204.878387 54.528054 202.393593 53.437169 C 199.78759 52.261437 197.104822 51.360447 194.349327 50.738239 L 198.583577 54.774513 C 200.232025 56.354276 201.880473 57.974442 203.524881 59.639051 C 205.189491 61.287499 206.777334 62.96827 208.292452 64.681363 C 209.80353 66.277288 211.314607 67.881292 212.829725 69.497418 C 214.340803 71.109504 215.754913 72.782194 217.063975 74.511448 C 218.021529 75.671019 218.845753 76.907355 219.536647 78.220457 C 220.2235 79.529519 220.712378 80.874943 220.9952 82.252691 C 221.536603 83.561752 221.936594 84.891016 222.207295 86.236441 C 222.494157 87.561664 222.53456 88.915169 222.332545 90.292916 C 222.263859 92.494887 221.544683 94.478682 220.166936 96.244299 C 218.785149 97.989715 217.063975 99.387664 214.995334 100.430065 C 212.930733 101.452264 210.793407 102.03407 208.595476 102.1674 L 208.292452 102.1674 C 206.559157 102.454262 204.745056 102.510827 202.846108 102.345174 C 200.963322 102.159319 199.197705 101.823973 197.553297 101.335095 C 195.28264 100.866419 193.149354 99.973509 191.149398 98.664447 C 190.947383 99.553317 190.65244 100.393702 190.26457 101.185604 C 189.88074 101.973465 189.351458 102.648197 188.676726 103.20172 C 188.191888 103.690599 187.585841 103.933017 186.862625 103.933017 C 186.139409 103.933017 185.501039 103.690599 184.947516 103.20172 C 184.393993 102.648197 183.872792 101.941142 183.383914 101.084596 C 182.911197 100.228049 182.612214 99.351301 182.474843 98.462432 C 182.192021 98.110924 181.961724 97.698812 181.796071 97.226096 C 181.626377 96.741258 181.476886 96.25238 181.343555 95.763502 C 181.056693 92.874677 180.620339 89.981812 180.030453 87.092987 C 179.460769 84.200122 178.794117 81.34362 178.038578 78.51944 C 177.618386 76.939677 177.28304 75.327592 177.03254 73.679144 C 176.794161 72.018574 176.575984 70.362045 176.373969 68.713597 C 176.171953 67.267165 175.982058 65.772248 175.796204 64.228848 C 175.626511 62.681408 175.687115 61.150129 175.969937 59.639051 C 176.171953 58.665335 176.636589 57.764345 177.359805 56.940121 C 178.083022 56.115897 178.95573 55.63914 179.981969 55.50581 C 181.222346 55.368439 182.325352 55.546213 183.282906 56.035091 C 184.256622 56.503767 184.947516 57.360314 185.351547 58.604731 C 186.458593 61.966272 187.250495 65.436902 187.719171 69.016621 C 188.20805 72.596339 189.040354 76.107372 190.216086 79.553761 C 190.700923 80.798177 191.266567 82.042594 191.904937 83.287011 C 192.559468 84.511226 193.343289 85.614232 194.248319 86.587948 C 194.785681 87.060665 195.331124 87.569744 195.888687 88.127308 C 196.44221 88.680831 197.032096 89.202031 197.654304 89.690909 C 198.272473 89.888885 198.8866 90.042417 199.492647 90.143425 C 200.114856 90.244432 200.737064 90.329279 201.359273 90.393924 C 203.492559 90.612101 205.69453 90.612101 207.965187 90.393924 C 208.65204 90.329279 209.42374 90.21211 210.284327 90.042417 C 211.157035 89.872723 211.795405 89.480813 212.199436 88.858605 C 212.417613 88.656589 212.526702 88.345485 212.526702 87.925292 C 212.793362 87.371769 212.76912 86.680875 212.449936 85.856651 C 212.146912 85.032427 211.896413 84.410218 211.694397 83.990026 C 211.625711 83.723365 211.516623 83.452664 211.367131 83.186003 C 211.233801 82.899141 211.09643 82.620359 210.9631 82.353698 C 210.494423 81.73149 210.013626 81.109282 209.524748 80.487073 C 209.03991 79.864865 208.51871 79.242656 207.965187 78.620448 C 206.385424 76.705339 204.769298 74.814472 203.12489 72.947847 C 201.476442 71.085262 199.755268 69.25904 197.953288 67.477261 C 197.266434 66.721722 196.575541 65.966183 195.888687 65.210645 C 195.197793 64.455106 194.474577 63.73189 193.719038 63.040996 L 192.183719 61.8087 C 189.763571 59.808744 187.452511 57.723942 185.250539 55.554293 C 183.048568 53.388685 180.988008 51.057423 179.072899 48.57263 C 178.163828 47.275689 177.351725 45.889861 176.628509 44.411106 C 175.905292 42.91619 175.75176 41.312185 176.171953 39.595052 C 176.575984 37.881958 177.468894 36.544614 178.846641 35.58706 C 180.224388 34.613344 181.779909 34.193151 183.509164 34.326482 C 184.668734 34.395167 185.795982 34.589102 186.886867 34.908287 C 187.997953 35.211311 189.104999 35.538576 190.216086 35.890083 C 190.700923 35.740592 191.214043 35.772914 191.751405 35.991091 C 194.575585 36.815315 197.258354 37.817313 199.795671 38.993045 C 202.34915 40.152615 204.837983 41.522282 207.258132 43.102045 C 208.417702 43.788898 209.55303 44.528275 210.660076 45.320177 C 211.771163 46.108038 212.837806 46.992867 213.864046 47.966583 L 214.365045 48.471622 C 214.365045 47.578713 214.365045 46.706005 214.365045 45.849458 C 214.365045 44.992912 214.332722 44.108083 214.264037 43.203052 C 214.264037 41.841466 214.777157 40.665735 215.803397 39.671818 C 216.845798 38.665779 218.021529 38.16074 219.334631 38.16074 C 220.845709 38.16074 222.029521 38.665779 222.886068 39.671818 C 223.762816 40.665735 224.263815 41.841466 224.401185 43.203052 C 224.736532 45.623201 224.728451 48.091833 224.376944 50.612989 C 224.037557 53.117984 223.770896 55.570455 223.568881 57.974442 C 223.500195 60.52792 223.500195 63.040996 223.568881 65.513668 Z M 261.244812 58.705739 C 261.798335 61.865264 262.145802 65.069234 262.279133 68.309566 C 262.412463 71.537777 262.311455 74.774069 261.976109 78.018441 C 261.705408 80.838581 261.260973 83.747607 260.638765 86.74148 C 260.016556 89.731312 258.840825 92.430242 257.11157 94.830189 C 256.574209 95.589768 255.992403 96.329146 255.370195 97.052362 C 254.747987 97.771538 254.061133 98.446271 253.305594 99.068479 C 252.344 100.042195 251.261195 100.858338 250.053141 101.512869 C 248.841047 102.1674 247.515824 102.595673 246.069391 102.797689 C 244.974466 102.866374 243.843178 102.866374 242.663406 102.797689 C 240.950313 103.06839 239.192776 102.931019 237.394836 102.393658 C 235.613058 101.840135 234.033295 101.00783 232.655548 99.900784 C 230.235399 97.832143 228.43746 95.335228 227.261728 92.410041 C 226.102158 89.488894 225.245611 86.511182 224.692088 83.489027 C 223.665848 76.883113 223.665848 70.277199 224.692088 63.671285 C 225.734489 57.04921 227.976864 50.847327 231.423252 45.065637 C 231.423252 45.065637 231.487897 45.000992 231.625268 44.867662 C 232.647467 42.108127 234.025214 39.631414 235.758509 37.429443 C 235.823154 37.296113 235.891839 37.243589 235.960525 37.275911 C 236.02517 37.312274 236.02517 37.397121 235.960525 37.530451 C 235.673663 38.015289 235.37872 38.520328 235.075696 39.041529 C 234.772672 39.546568 234.514092 40.075849 234.295915 40.629372 C 234.025214 41.186936 233.782795 41.75662 233.564618 42.346506 C 233.362603 42.91619 233.160587 43.477794 232.958571 44.035357 C 233.095942 43.966672 233.245434 43.950511 233.415127 43.982833 C 233.596941 44.015156 233.722191 44.035357 233.790876 44.035357 C 234.683785 42.116208 235.742348 40.435437 236.966563 38.993045 C 238.21098 37.530451 239.665493 36.629461 241.330103 36.294115 C 242.016956 36.027454 242.691689 35.805237 243.346219 35.639584 C 244.00075 35.453729 244.675483 35.397165 245.362336 35.46181 C 246.117875 35.32848 246.893615 35.275956 247.681477 35.312318 C 248.473378 35.344641 249.176393 35.538576 249.798601 35.890083 C 250.489495 36.294115 251.087462 36.87592 251.588461 37.631459 C 252.109661 38.386998 252.546015 39.110214 252.901563 39.797067 C 253.305594 39.663737 253.725787 39.647576 254.162141 39.748584 C 254.614656 39.849591 254.986365 40.144534 255.269187 40.629372 C 256.024726 42.007119 256.747942 43.421229 257.438836 44.867662 C 258.125689 46.310054 258.707495 47.788809 259.176171 49.303927 C 259.665049 50.815005 260.061 52.370526 260.364024 53.96645 C 260.683208 55.546213 260.978151 57.125976 261.244812 58.705739 Z M 248.336008 88.757597 C 249.245078 86.337448 249.867287 83.856695 250.202633 81.319378 C 250.537979 78.765899 250.707672 76.220501 250.707672 73.679144 C 250.505656 71.05698 250.303641 68.463098 250.101625 65.889417 C 249.899609 63.303616 249.588505 60.729936 249.168312 58.176457 C 249.034982 57.420919 248.893571 56.649219 248.740039 55.857317 C 248.606709 55.069456 248.473378 54.326038 248.336008 53.639184 C 248.069347 52.68163 247.758243 51.756398 247.406735 50.867529 C 247.067349 49.958458 246.723922 49.057468 246.372415 48.168599 C 246.235044 47.833253 246.085553 47.453463 245.915859 47.03327 C 245.750207 46.613078 245.564352 46.237328 245.362336 45.897942 C 245.212845 45.764612 245.067393 45.695926 244.934063 45.695926 L 244.429024 45.695926 C 244.146202 46.237328 243.883581 46.815093 243.649243 47.437302 C 243.414905 48.05951 243.22097 48.645356 243.067438 49.202919 C 242.530076 51.065504 242.033117 52.948291 241.580602 54.847238 C 241.128087 56.730025 240.764459 58.673416 240.497798 60.673372 C 240.00892 64.455106 239.798823 68.309566 239.867509 72.244832 C 239.952355 76.159897 240.295782 80.042639 240.901829 83.889018 C 241.120006 85.06879 240.986676 86.09907 240.497798 86.991979 C 239.051365 80.252735 238.481681 73.287233 238.784705 66.091433 C 239.103889 58.899674 240.740217 52.200832 243.697727 45.99895 C 243.431066 46.200966 243.168446 46.495909 242.917946 46.883779 C 242.683608 47.251447 242.465431 47.615076 242.263415 47.966583 C 241.285659 49.897853 240.453354 51.897809 239.766501 53.96645 C 239.075607 56.018929 238.530165 58.107772 238.126133 60.245098 C 237.992803 60.52792 237.924118 60.673372 237.924118 60.673372 C 237.705941 61.832942 237.548368 63.016754 237.447361 64.228848 C 237.346353 65.436902 237.229184 66.620714 237.095853 67.780285 C 236.958482 71.295358 237.075652 74.79023 237.447361 78.268941 C 237.835231 81.747651 238.404915 85.177878 239.160454 88.555581 C 238.808946 88.822242 238.429157 88.991935 238.025125 89.06062 C 236.784749 89.327281 235.572655 89.117185 234.396923 88.430331 C 234.950446 89.537377 235.705985 90.680786 236.66354 91.856518 C 237.641296 93.016088 238.756422 93.888796 240.017 94.478682 C 241.29374 95.068568 242.655326 95.149374 244.101758 94.729181 C 245.27749 94.32919 246.210802 93.504966 246.901696 92.260549 C 247.237042 91.707026 247.523905 91.141382 247.758243 90.571698 C 248.008742 89.981812 248.202677 89.379805 248.336008 88.757597 Z M 248.336008 88.757597 " stroke="#100a09" stroke-width="8.26144" stroke-opacity="1" stroke-miterlimit="4"/><g fill="#d6a5fa" fill-opacity="1"><g transform="translate(72.016977, 196.769817)"><g><path d="M 45.328125 -33.9375 C 44.460938 -32.34375 43.242188 -31.160156 41.671875 -30.390625 C 40.109375 -29.628906 38.394531 -29.179688 36.53125 -29.046875 C 34.664062 -28.910156 32.785156 -28.941406 30.890625 -29.140625 C 28.992188 -29.347656 27.28125 -29.582031 25.75 -29.84375 C 25.289062 -29.976562 24.84375 -30.078125 24.40625 -30.140625 C 23.976562 -30.210938 23.53125 -30.28125 23.0625 -30.34375 C 23.195312 -29.75 23.328125 -29.148438 23.453125 -28.546875 C 23.585938 -27.953125 23.691406 -27.390625 23.765625 -26.859375 C 24.222656 -24.390625 24.664062 -21.921875 25.09375 -19.453125 C 25.53125 -16.992188 25.882812 -14.535156 26.15625 -12.078125 C 26.289062 -10.878906 26.320312 -9.664062 26.25 -8.4375 C 26.1875 -7.207031 25.988281 -6.023438 25.65625 -4.890625 C 25.1875 -3.222656 24.1875 -1.691406 22.65625 -0.296875 C 22.125 0.171875 21.410156 0.550781 20.515625 0.84375 C 19.617188 1.144531 18.867188 0.929688 18.265625 0.203125 C 17.734375 -0.535156 17.414062 -1.351562 17.3125 -2.25 C 17.21875 -3.144531 17.101562 -4.023438 16.96875 -4.890625 C 16.90625 -5.492188 16.820312 -6.109375 16.71875 -6.734375 C 16.625 -7.367188 16.539062 -8.019531 16.46875 -8.6875 C 16 -10.28125 15.601562 -11.976562 15.28125 -13.78125 C 15.34375 -13.25 15.40625 -12.734375 15.46875 -12.234375 C 15.539062 -11.734375 15.609375 -11.21875 15.671875 -10.6875 C 15.804688 -9.820312 15.921875 -8.953125 16.015625 -8.078125 C 16.117188 -7.210938 16.238281 -6.347656 16.375 -5.484375 C 16.4375 -4.828125 16.515625 -4.144531 16.609375 -3.4375 C 16.710938 -2.738281 16.664062 -2.09375 16.46875 -1.5 C 16.46875 -1.425781 16.4375 -1.425781 16.375 -1.5 C 15.96875 -2.09375 15.734375 -2.804688 15.671875 -3.640625 C 15.609375 -4.472656 15.507812 -5.222656 15.375 -5.890625 L 14.46875 -11.078125 C 14.207031 -12.804688 13.941406 -14.519531 13.671875 -16.21875 C 13.410156 -17.914062 13.144531 -19.628906 12.875 -21.359375 C 12.539062 -23.421875 12.222656 -25.484375 11.921875 -27.546875 C 11.628906 -29.609375 11.316406 -31.671875 10.984375 -33.734375 C 7.785156 -35.003906 4.722656 -36.40625 1.796875 -37.9375 C 1.734375 -38 1.734375 -38.0625 1.796875 -38.125 C 1.859375 -38.195312 1.925781 -38.203125 2 -38.140625 C 3.457031 -37.472656 4.9375 -36.820312 6.4375 -36.1875 C 7.9375 -35.550781 9.414062 -34.96875 10.875 -34.4375 C 10.8125 -34.769531 10.742188 -35.066406 10.671875 -35.328125 C 10.609375 -35.597656 10.546875 -35.867188 10.484375 -36.140625 C 9.347656 -36.609375 8.226562 -37.085938 7.125 -37.578125 C 6.03125 -38.078125 4.921875 -38.5625 3.796875 -39.03125 C 2.734375 -39.5625 2.066406 -40.457031 1.796875 -41.71875 C 1.523438 -42.988281 1.660156 -44.085938 2.203125 -45.015625 C 2.660156 -45.753906 3.390625 -46.351562 4.390625 -46.8125 C 5.390625 -47.28125 6.320312 -47.347656 7.1875 -47.015625 L 7.78125 -46.71875 C 7.1875 -48.914062 6.554688 -51.113281 5.890625 -53.3125 C 5.222656 -55.507812 4.523438 -57.671875 3.796875 -59.796875 C 3.523438 -60.660156 3.625 -61.441406 4.09375 -62.140625 C 4.5625 -62.835938 5.160156 -63.320312 5.890625 -63.59375 C 5.828125 -64.0625 5.910156 -64.457031 6.140625 -64.78125 C 6.367188 -65.113281 6.617188 -65.414062 6.890625 -65.6875 C 8.554688 -66.820312 10.367188 -67.203125 12.328125 -66.828125 C 14.296875 -66.460938 16.078125 -65.882812 17.671875 -65.09375 C 19.335938 -64.226562 20.953125 -63.3125 22.515625 -62.34375 C 24.078125 -61.375 25.625 -60.390625 27.15625 -59.390625 C 30.28125 -57.328125 33.320312 -55.113281 36.28125 -52.75 C 39.25 -50.394531 42.160156 -47.953125 45.015625 -45.421875 C 45.816406 -44.753906 46.148438 -43.988281 46.015625 -43.125 C 46.617188 -42.125 47.019531 -41.125 47.21875 -40.125 C 47.414062 -38.726562 47.332031 -37.53125 46.96875 -36.53125 C 46.601562 -35.539062 46.054688 -34.675781 45.328125 -33.9375 Z M 33.34375 -44.625 C 31.875 -45.488281 30.425781 -46.335938 29 -47.171875 C 27.570312 -48.003906 26.125 -48.816406 24.65625 -49.609375 C 23.59375 -50.140625 22.492188 -50.6875 21.359375 -51.25 C 20.234375 -51.820312 19.101562 -52.34375 17.96875 -52.8125 C 18.5 -50.945312 19 -49.046875 19.46875 -47.109375 C 19.9375 -45.179688 20.367188 -43.253906 20.765625 -41.328125 C 22.960938 -40.597656 25.09375 -40 27.15625 -39.53125 C 28.820312 -39.195312 30.5 -38.945312 32.1875 -38.78125 C 33.882812 -38.613281 35.566406 -38.597656 37.234375 -38.734375 C 37.566406 -38.734375 37.914062 -38.75 38.28125 -38.78125 C 38.644531 -38.8125 38.960938 -38.863281 39.234375 -38.9375 L 40.03125 -39.125 C 39.894531 -39.394531 39.757812 -39.597656 39.625 -39.734375 C 38.96875 -40.796875 38.039062 -41.707031 36.84375 -42.46875 C 35.644531 -43.238281 34.476562 -43.957031 33.34375 -44.625 Z M 28.15625 -31.25 C 27.289062 -31.382812 26.390625 -31.53125 25.453125 -31.6875 C 24.523438 -31.851562 23.59375 -32.039062 22.65625 -32.25 C 22.726562 -32.113281 22.765625 -31.976562 22.765625 -31.84375 C 22.765625 -31.707031 22.796875 -31.578125 22.859375 -31.453125 C 23.054688 -31.378906 23.238281 -31.328125 23.40625 -31.296875 C 23.570312 -31.265625 23.753906 -31.25 23.953125 -31.25 C 25.890625 -30.976562 27.867188 -30.722656 29.890625 -30.484375 C 31.921875 -30.253906 33.90625 -30.242188 35.84375 -30.453125 L 39.625 -31.046875 C 39.625 -31.109375 39.273438 -31.109375 38.578125 -31.046875 C 37.878906 -30.984375 37.53125 -30.984375 37.53125 -31.046875 C 35.875 -30.847656 34.210938 -30.78125 32.546875 -30.84375 C 30.878906 -30.914062 29.414062 -31.050781 28.15625 -31.25 Z M 23.15625 -13.671875 C 23.289062 -12.015625 23.34375 -10.316406 23.3125 -8.578125 C 23.28125 -6.847656 22.863281 -5.21875 22.0625 -3.6875 L 22.265625 -3.390625 C 22.660156 -3.585938 22.992188 -3.820312 23.265625 -4.09375 C 23.992188 -5.625 24.304688 -7.21875 24.203125 -8.875 C 24.109375 -10.539062 23.894531 -12.207031 23.5625 -13.875 L 22.953125 -16.96875 C 22.890625 -16.90625 22.890625 -16.671875 22.953125 -16.265625 C 23.023438 -15.867188 23.023438 -15.671875 22.953125 -15.671875 Z M 23.15625 -13.671875 "/></g></g></g><g fill="#d6a5fa" fill-opacity="1"><g transform="translate(114.641084, 196.769817)"><g><path d="M 36.53125 -3 C 36.132812 -3.125 35.6875 -3.816406 35.1875 -5.078125 C 34.6875 -6.347656 34.15625 -7.914062 33.59375 -9.78125 C 33.03125 -11.644531 32.5 -13.570312 32 -15.5625 C 31.5 -17.5625 31.046875 -19.359375 30.640625 -20.953125 C 30.242188 -22.554688 29.976562 -23.722656 29.84375 -24.453125 L 22.0625 -24.359375 C 21.332031 -21.359375 20.695312 -18.378906 20.15625 -15.421875 C 19.625 -12.460938 19.226562 -9.453125 18.96875 -6.390625 C 18.96875 -5.785156 18.679688 -5.484375 18.109375 -5.484375 C 17.546875 -5.484375 17.300781 -5.785156 17.375 -6.390625 C 17.632812 -9.378906 18.015625 -12.390625 18.515625 -15.421875 C 19.015625 -18.453125 19.734375 -21.429688 20.671875 -24.359375 L 19.765625 -24.359375 C 19.429688 -23.160156 19.097656 -21.710938 18.765625 -20.015625 C 18.429688 -18.316406 18.113281 -16.648438 17.8125 -15.015625 C 17.519531 -13.390625 17.269531 -12.023438 17.0625 -10.921875 C 16.863281 -9.828125 16.765625 -9.28125 16.765625 -9.28125 L 16.171875 -4.796875 C 15.972656 -2.523438 15.207031 -0.894531 13.875 0.09375 C 12.539062 1.09375 11.078125 1.492188 9.484375 1.296875 C 7.890625 1.097656 6.539062 0.332031 5.4375 -1 C 4.34375 -2.332031 3.960938 -4.160156 4.296875 -6.484375 C 4.691406 -9.410156 5.15625 -12.335938 5.6875 -15.265625 C 6.21875 -18.203125 6.851562 -21.097656 7.59375 -23.953125 C 7.125 -23.890625 6.65625 -23.84375 6.1875 -23.8125 C 5.71875 -23.78125 5.285156 -23.765625 4.890625 -23.765625 C 5.023438 -24.097656 5.054688 -24.394531 4.984375 -24.65625 C 3.390625 -25.050781 2.226562 -25.914062 1.5 -27.25 C 0.769531 -28.582031 0.566406 -30.0625 0.890625 -31.6875 C 1.222656 -33.320312 2.15625 -34.820312 3.6875 -36.1875 C 5.21875 -37.550781 7.484375 -38.46875 10.484375 -38.9375 C 11.210938 -42.257812 12.007812 -45.535156 12.875 -48.765625 C 13.738281 -51.992188 14.804688 -55.140625 16.078125 -58.203125 C 16.671875 -59.535156 17.332031 -60.984375 18.0625 -62.546875 C 18.800781 -64.109375 19.71875 -65.46875 20.8125 -66.625 C 21.914062 -67.789062 23.296875 -68.375 24.953125 -68.375 C 25.816406 -68.445312 26.679688 -68.21875 27.546875 -67.6875 C 28.410156 -67.15625 29.046875 -66.488281 29.453125 -65.6875 C 30.910156 -65.625 32.125 -65.109375 33.09375 -64.140625 C 34.0625 -63.171875 34.609375 -61.890625 34.734375 -60.296875 C 34.867188 -58.296875 35.035156 -56.28125 35.234375 -54.25 C 35.429688 -52.226562 35.632812 -50.25 35.84375 -48.3125 C 35.90625 -48.25 35.96875 -48.21875 36.03125 -48.21875 C 36.101562 -49.945312 36.1875 -51.660156 36.28125 -53.359375 C 36.382812 -55.054688 36.535156 -56.738281 36.734375 -58.40625 C 36.734375 -58.664062 36.78125 -58.0625 36.875 -56.59375 C 36.976562 -55.132812 37.097656 -53.253906 37.234375 -50.953125 C 37.367188 -48.660156 37.5 -46.363281 37.625 -44.0625 C 37.757812 -41.769531 37.929688 -39.859375 38.140625 -38.328125 C 40.066406 -38.128906 41.5625 -37.476562 42.625 -36.375 C 43.6875 -35.28125 44.347656 -34.019531 44.609375 -32.59375 C 44.878906 -31.164062 44.75 -29.75 44.21875 -28.34375 C 43.6875 -26.945312 42.722656 -25.816406 41.328125 -24.953125 C 41.992188 -22.023438 42.691406 -18.710938 43.421875 -15.015625 C 44.148438 -11.328125 44.71875 -7.984375 45.125 -4.984375 C 45.382812 -2.722656 45.195312 -1.015625 44.5625 0.140625 C 43.9375 1.304688 43.109375 1.957031 42.078125 2.09375 C 41.046875 2.226562 40.015625 1.863281 38.984375 1 C 37.953125 0.132812 37.132812 -1.195312 36.53125 -3 Z M 21.765625 -37.328125 C 22.492188 -37.460938 23.441406 -37.546875 24.609375 -37.578125 C 25.773438 -37.617188 26.691406 -37.671875 27.359375 -37.734375 C 27.222656 -38.597656 27.070312 -39.828125 26.90625 -41.421875 C 26.738281 -43.023438 26.535156 -44.738281 26.296875 -46.5625 C 26.066406 -48.394531 25.785156 -50.078125 25.453125 -51.609375 C 24.660156 -48.816406 23.960938 -46.320312 23.359375 -44.125 C 22.765625 -41.925781 22.234375 -39.660156 21.765625 -37.328125 Z M 21.765625 -37.328125 "/></g></g></g><g fill="#d6a5fa" fill-opacity="1"><g transform="translate(157.165361, 196.769817)"><g><path d="M 47.8125 -36.234375 C 47.882812 -35.367188 48.003906 -34.550781 48.171875 -33.78125 C 48.335938 -33.019531 48.484375 -32.207031 48.609375 -31.34375 C 48.816406 -30.675781 48.753906 -30.023438 48.421875 -29.390625 C 48.085938 -28.765625 47.550781 -28.351562 46.8125 -28.15625 C 45.21875 -27.75 43.921875 -28.078125 42.921875 -29.140625 C 41.921875 -30.210938 41.171875 -31.613281 40.671875 -33.34375 C 40.179688 -35.070312 39.832031 -36.703125 39.625 -38.234375 C 39.5625 -38.234375 39.53125 -38.25 39.53125 -38.28125 C 39.53125 -38.3125 39.5 -38.328125 39.4375 -38.328125 C 37.96875 -40.460938 36.1875 -42.328125 34.09375 -43.921875 C 32 -45.515625 29.753906 -46.847656 27.359375 -47.921875 C 24.828125 -49.046875 22.226562 -49.910156 19.5625 -50.515625 L 23.65625 -46.625 C 25.257812 -45.09375 26.859375 -43.523438 28.453125 -41.921875 C 30.046875 -40.328125 31.578125 -38.695312 33.046875 -37.03125 C 34.503906 -35.5 35.960938 -33.953125 37.421875 -32.390625 C 38.890625 -30.828125 40.257812 -29.210938 41.53125 -27.546875 C 42.457031 -26.421875 43.253906 -25.222656 43.921875 -23.953125 C 44.585938 -22.691406 45.054688 -21.394531 45.328125 -20.0625 C 45.859375 -18.800781 46.253906 -17.519531 46.515625 -16.21875 C 46.785156 -14.925781 46.820312 -13.613281 46.625 -12.28125 C 46.550781 -10.144531 45.847656 -8.226562 44.515625 -6.53125 C 43.191406 -4.84375 41.53125 -3.5 39.53125 -2.5 C 37.53125 -1.5 35.46875 -0.929688 33.34375 -0.796875 L 33.046875 -0.796875 C 31.378906 -0.535156 29.628906 -0.488281 27.796875 -0.65625 C 25.972656 -0.820312 24.257812 -1.132812 22.65625 -1.59375 C 20.457031 -2.0625 18.394531 -2.925781 16.46875 -4.1875 C 16.269531 -3.320312 15.988281 -2.503906 15.625 -1.734375 C 15.257812 -0.972656 14.742188 -0.328125 14.078125 0.203125 C 13.609375 0.671875 13.023438 0.90625 12.328125 0.90625 C 11.628906 0.90625 11.015625 0.671875 10.484375 0.203125 C 9.953125 -0.328125 9.453125 -1.007812 8.984375 -1.84375 C 8.515625 -2.675781 8.21875 -3.523438 8.09375 -4.390625 C 7.820312 -4.722656 7.601562 -5.125 7.4375 -5.59375 C 7.269531 -6.0625 7.117188 -6.523438 6.984375 -6.984375 C 6.722656 -9.785156 6.304688 -12.582031 5.734375 -15.375 C 5.171875 -18.164062 4.523438 -20.925781 3.796875 -23.65625 C 3.390625 -25.1875 3.070312 -26.75 2.84375 -28.34375 C 2.613281 -29.945312 2.398438 -31.546875 2.203125 -33.140625 C 1.992188 -34.535156 1.804688 -35.984375 1.640625 -37.484375 C 1.472656 -38.984375 1.523438 -40.460938 1.796875 -41.921875 C 1.992188 -42.859375 2.441406 -43.722656 3.140625 -44.515625 C 3.835938 -45.316406 4.6875 -45.785156 5.6875 -45.921875 C 6.882812 -46.054688 7.945312 -45.890625 8.875 -45.421875 C 9.8125 -44.953125 10.476562 -44.117188 10.875 -42.921875 C 11.945312 -39.660156 12.710938 -36.300781 13.171875 -32.84375 C 13.640625 -29.382812 14.441406 -25.988281 15.578125 -22.65625 C 16.035156 -21.457031 16.582031 -20.257812 17.21875 -19.0625 C 17.851562 -17.863281 18.601562 -16.800781 19.46875 -15.875 C 20 -15.40625 20.53125 -14.90625 21.0625 -14.375 C 21.59375 -13.84375 22.160156 -13.34375 22.765625 -12.875 C 23.359375 -12.675781 23.953125 -12.523438 24.546875 -12.421875 C 25.148438 -12.328125 25.753906 -12.242188 26.359375 -12.171875 C 28.421875 -11.972656 30.550781 -11.972656 32.75 -12.171875 C 33.40625 -12.242188 34.148438 -12.363281 34.984375 -12.53125 C 35.816406 -12.695312 36.4375 -13.078125 36.84375 -13.671875 C 37.039062 -13.867188 37.140625 -14.171875 37.140625 -14.578125 C 37.398438 -15.109375 37.378906 -15.769531 37.078125 -16.5625 C 36.785156 -17.363281 36.539062 -17.96875 36.34375 -18.375 C 36.269531 -18.632812 36.164062 -18.894531 36.03125 -19.15625 C 35.90625 -19.425781 35.773438 -19.695312 35.640625 -19.96875 C 35.171875 -20.5625 34.703125 -21.15625 34.234375 -21.75 C 33.773438 -22.351562 33.28125 -22.957031 32.75 -23.5625 C 31.21875 -25.425781 29.648438 -27.253906 28.046875 -29.046875 C 26.453125 -30.847656 24.789062 -32.613281 23.0625 -34.34375 C 22.394531 -35.070312 21.726562 -35.800781 21.0625 -36.53125 C 20.394531 -37.269531 19.695312 -37.972656 18.96875 -38.640625 L 17.46875 -39.828125 C 15.132812 -41.753906 12.90625 -43.765625 10.78125 -45.859375 C 8.65625 -47.960938 6.660156 -50.210938 4.796875 -52.609375 C 3.929688 -53.867188 3.144531 -55.210938 2.4375 -56.640625 C 1.738281 -58.078125 1.59375 -59.628906 2 -61.296875 C 2.394531 -62.960938 3.257812 -64.257812 4.59375 -65.1875 C 5.925781 -66.113281 7.421875 -66.515625 9.078125 -66.390625 C 10.210938 -66.316406 11.3125 -66.128906 12.375 -65.828125 C 13.4375 -65.535156 14.503906 -65.222656 15.578125 -64.890625 C 16.035156 -65.023438 16.535156 -64.988281 17.078125 -64.78125 C 19.796875 -63.988281 22.382812 -63.023438 24.84375 -61.890625 C 27.3125 -60.765625 29.710938 -59.4375 32.046875 -57.90625 C 33.171875 -57.238281 34.265625 -56.519531 35.328125 -55.75 C 36.398438 -54.988281 37.4375 -54.140625 38.4375 -53.203125 L 38.9375 -52.703125 C 38.9375 -53.566406 38.9375 -54.414062 38.9375 -55.25 C 38.9375 -56.082031 38.898438 -56.929688 38.828125 -57.796875 C 38.828125 -59.128906 39.328125 -60.273438 40.328125 -61.234375 C 41.328125 -62.203125 42.457031 -62.6875 43.71875 -62.6875 C 45.1875 -62.6875 46.335938 -62.203125 47.171875 -61.234375 C 48.003906 -60.273438 48.484375 -59.128906 48.609375 -57.796875 C 48.941406 -55.472656 48.941406 -53.09375 48.609375 -50.65625 C 48.285156 -48.226562 48.019531 -45.851562 47.8125 -43.53125 C 47.75 -41.0625 47.75 -38.628906 47.8125 -36.234375 Z M 47.8125 -36.234375 "/></g></g></g><g fill="#d6a5fa" fill-opacity="1"><g transform="translate(203.682598, 196.769817)"><g><path d="M 47.8125 -36.234375 C 47.882812 -35.367188 48.003906 -34.550781 48.171875 -33.78125 C 48.335938 -33.019531 48.484375 -32.207031 48.609375 -31.34375 C 48.816406 -30.675781 48.753906 -30.023438 48.421875 -29.390625 C 48.085938 -28.765625 47.550781 -28.351562 46.8125 -28.15625 C 45.21875 -27.75 43.921875 -28.078125 42.921875 -29.140625 C 41.921875 -30.210938 41.171875 -31.613281 40.671875 -33.34375 C 40.179688 -35.070312 39.832031 -36.703125 39.625 -38.234375 C 39.5625 -38.234375 39.53125 -38.25 39.53125 -38.28125 C 39.53125 -38.3125 39.5 -38.328125 39.4375 -38.328125 C 37.96875 -40.460938 36.1875 -42.328125 34.09375 -43.921875 C 32 -45.515625 29.753906 -46.847656 27.359375 -47.921875 C 24.828125 -49.046875 22.226562 -49.910156 19.5625 -50.515625 L 23.65625 -46.625 C 25.257812 -45.09375 26.859375 -43.523438 28.453125 -41.921875 C 30.046875 -40.328125 31.578125 -38.695312 33.046875 -37.03125 C 34.503906 -35.5 35.960938 -33.953125 37.421875 -32.390625 C 38.890625 -30.828125 40.257812 -29.210938 41.53125 -27.546875 C 42.457031 -26.421875 43.253906 -25.222656 43.921875 -23.953125 C 44.585938 -22.691406 45.054688 -21.394531 45.328125 -20.0625 C 45.859375 -18.800781 46.253906 -17.519531 46.515625 -16.21875 C 46.785156 -14.925781 46.820312 -13.613281 46.625 -12.28125 C 46.550781 -10.144531 45.847656 -8.226562 44.515625 -6.53125 C 43.191406 -4.84375 41.53125 -3.5 39.53125 -2.5 C 37.53125 -1.5 35.46875 -0.929688 33.34375 -0.796875 L 33.046875 -0.796875 C 31.378906 -0.535156 29.628906 -0.488281 27.796875 -0.65625 C 25.972656 -0.820312 24.257812 -1.132812 22.65625 -1.59375 C 20.457031 -2.0625 18.394531 -2.925781 16.46875 -4.1875 C 16.269531 -3.320312 15.988281 -2.503906 15.625 -1.734375 C 15.257812 -0.972656 14.742188 -0.328125 14.078125 0.203125 C 13.609375 0.671875 13.023438 0.90625 12.328125 0.90625 C 11.628906 0.90625 11.015625 0.671875 10.484375 0.203125 C 9.953125 -0.328125 9.453125 -1.007812 8.984375 -1.84375 C 8.515625 -2.675781 8.21875 -3.523438 8.09375 -4.390625 C 7.820312 -4.722656 7.601562 -5.125 7.4375 -5.59375 C 7.269531 -6.0625 7.117188 -6.523438 6.984375 -6.984375 C 6.722656 -9.785156 6.304688 -12.582031 5.734375 -15.375 C 5.171875 -18.164062 4.523438 -20.925781 3.796875 -23.65625 C 3.390625 -25.1875 3.070312 -26.75 2.84375 -28.34375 C 2.613281 -29.945312 2.398438 -31.546875 2.203125 -33.140625 C 1.992188 -34.535156 1.804688 -35.984375 1.640625 -37.484375 C 1.472656 -38.984375 1.523438 -40.460938 1.796875 -41.921875 C 1.992188 -42.859375 2.441406 -43.722656 3.140625 -44.515625 C 3.835938 -45.316406 4.6875 -45.785156 5.6875 -45.921875 C 6.882812 -46.054688 7.945312 -45.890625 8.875 -45.421875 C 9.8125 -44.953125 10.476562 -44.117188 10.875 -42.921875 C 11.945312 -39.660156 12.710938 -36.300781 13.171875 -32.84375 C 13.640625 -29.382812 14.441406 -25.988281 15.578125 -22.65625 C 16.035156 -21.457031 16.582031 -20.257812 17.21875 -19.0625 C 17.851562 -17.863281 18.601562 -16.800781 19.46875 -15.875 C 20 -15.40625 20.53125 -14.90625 21.0625 -14.375 C 21.59375 -13.84375 22.160156 -13.34375 22.765625 -12.875 C 23.359375 -12.675781 23.953125 -12.523438 24.546875 -12.421875 C 25.148438 -12.328125 25.753906 -12.242188 26.359375 -12.171875 C 28.421875 -11.972656 30.550781 -11.972656 32.75 -12.171875 C 33.40625 -12.242188 34.148438 -12.363281 34.984375 -12.53125 C 35.816406 -12.695312 36.4375 -13.078125 36.84375 -13.671875 C 37.039062 -13.867188 37.140625 -14.171875 37.140625 -14.578125 C 37.398438 -15.109375 37.378906 -15.769531 37.078125 -16.5625 C 36.785156 -17.363281 36.539062 -17.96875 36.34375 -18.375 C 36.269531 -18.632812 36.164062 -18.894531 36.03125 -19.15625 C 35.90625 -19.425781 35.773438 -19.695312 35.640625 -19.96875 C 35.171875 -20.5625 34.703125 -21.15625 34.234375 -21.75 C 33.773438 -22.351562 33.28125 -22.957031 32.75 -23.5625 C 31.21875 -25.425781 29.648438 -27.253906 28.046875 -29.046875 C 26.453125 -30.847656 24.789062 -32.613281 23.0625 -34.34375 C 22.394531 -35.070312 21.726562 -35.800781 21.0625 -36.53125 C 20.394531 -37.269531 19.695312 -37.972656 18.96875 -38.640625 L 17.46875 -39.828125 C 15.132812 -41.753906 12.90625 -43.765625 10.78125 -45.859375 C 8.65625 -47.960938 6.660156 -50.210938 4.796875 -52.609375 C 3.929688 -53.867188 3.144531 -55.210938 2.4375 -56.640625 C 1.738281 -58.078125 1.59375 -59.628906 2 -61.296875 C 2.394531 -62.960938 3.257812 -64.257812 4.59375 -65.1875 C 5.925781 -66.113281 7.421875 -66.515625 9.078125 -66.390625 C 10.210938 -66.316406 11.3125 -66.128906 12.375 -65.828125 C 13.4375 -65.535156 14.503906 -65.222656 15.578125 -64.890625 C 16.035156 -65.023438 16.535156 -64.988281 17.078125 -64.78125 C 19.796875 -63.988281 22.382812 -63.023438 24.84375 -61.890625 C 27.3125 -60.765625 29.710938 -59.4375 32.046875 -57.90625 C 33.171875 -57.238281 34.265625 -56.519531 35.328125 -55.75 C 36.398438 -54.988281 37.4375 -54.140625 38.4375 -53.203125 L 38.9375 -52.703125 C 38.9375 -53.566406 38.9375 -54.414062 38.9375 -55.25 C 38.9375 -56.082031 38.898438 -56.929688 38.828125 -57.796875 C 38.828125 -59.128906 39.328125 -60.273438 40.328125 -61.234375 C 41.328125 -62.203125 42.457031 -62.6875 43.71875 -62.6875 C 45.1875 -62.6875 46.335938 -62.203125 47.171875 -61.234375 C 48.003906 -60.273438 48.484375 -59.128906 48.609375 -57.796875 C 48.941406 -55.472656 48.941406 -53.09375 48.609375 -50.65625 C 48.285156 -48.226562 48.019531 -45.851562 47.8125 -43.53125 C 47.75 -41.0625 47.75 -38.628906 47.8125 -36.234375 Z M 47.8125 -36.234375 "/></g></g></g><g fill="#d6a5fa" fill-opacity="1"><g transform="translate(250.199844, 196.769817)"><g><path d="M 37.734375 -42.828125 C 38.265625 -39.765625 38.597656 -36.664062 38.734375 -33.53125 C 38.867188 -30.40625 38.769531 -27.28125 38.4375 -24.15625 C 38.164062 -21.425781 37.726562 -18.613281 37.125 -15.71875 C 36.53125 -12.820312 35.398438 -10.210938 33.734375 -7.890625 C 33.203125 -7.148438 32.632812 -6.429688 32.03125 -5.734375 C 31.4375 -5.035156 30.773438 -4.390625 30.046875 -3.796875 C 29.117188 -2.859375 28.070312 -2.070312 26.90625 -1.4375 C 25.738281 -0.8125 24.457031 -0.398438 23.0625 -0.203125 C 22 -0.128906 20.898438 -0.128906 19.765625 -0.203125 C 18.097656 0.0664062 16.398438 -0.0625 14.671875 -0.59375 C 12.941406 -1.125 11.410156 -1.925781 10.078125 -3 C 7.753906 -4.988281 6.023438 -7.394531 4.890625 -10.21875 C 3.753906 -13.050781 2.921875 -15.9375 2.390625 -18.875 C 1.398438 -25.257812 1.398438 -31.644531 2.390625 -38.03125 C 3.390625 -44.425781 5.554688 -50.414062 8.890625 -56 C 8.890625 -56 8.953125 -56.066406 9.078125 -56.203125 C 10.078125 -58.867188 11.410156 -61.265625 13.078125 -63.390625 C 13.140625 -63.523438 13.203125 -63.570312 13.265625 -63.53125 C 13.335938 -63.5 13.34375 -63.421875 13.28125 -63.296875 C 13.007812 -62.828125 12.722656 -62.34375 12.421875 -61.84375 C 12.128906 -61.34375 11.882812 -60.828125 11.6875 -60.296875 C 11.414062 -59.765625 11.179688 -59.210938 10.984375 -58.640625 C 10.785156 -58.078125 10.582031 -57.53125 10.375 -57 C 10.507812 -57.070312 10.660156 -57.085938 10.828125 -57.046875 C 10.992188 -57.015625 11.113281 -57 11.1875 -57 C 12.050781 -58.863281 13.082031 -60.492188 14.28125 -61.890625 C 15.476562 -63.285156 16.875 -64.148438 18.46875 -64.484375 C 19.132812 -64.753906 19.78125 -64.972656 20.40625 -65.140625 C 21.039062 -65.304688 21.691406 -65.351562 22.359375 -65.28125 C 23.085938 -65.414062 23.832031 -65.46875 24.59375 -65.4375 C 25.363281 -65.40625 26.050781 -65.222656 26.65625 -64.890625 C 27.320312 -64.492188 27.90625 -63.925781 28.40625 -63.1875 C 28.90625 -62.457031 29.320312 -61.757812 29.65625 -61.09375 C 30.050781 -61.226562 30.460938 -61.242188 30.890625 -61.140625 C 31.328125 -61.046875 31.675781 -60.765625 31.9375 -60.296875 C 32.675781 -58.960938 33.378906 -57.597656 34.046875 -56.203125 C 34.710938 -54.804688 35.273438 -53.375 35.734375 -51.90625 C 36.203125 -50.445312 36.582031 -48.953125 36.875 -47.421875 C 37.175781 -45.890625 37.460938 -44.359375 37.734375 -42.828125 Z M 25.25 -13.78125 C 26.113281 -16.101562 26.710938 -18.492188 27.046875 -20.953125 C 27.378906 -23.421875 27.546875 -25.882812 27.546875 -28.34375 C 27.347656 -30.875 27.148438 -33.382812 26.953125 -35.875 C 26.753906 -38.375 26.457031 -40.859375 26.0625 -43.328125 C 25.925781 -44.054688 25.789062 -44.800781 25.65625 -45.5625 C 25.519531 -46.332031 25.382812 -47.050781 25.25 -47.71875 C 24.988281 -48.644531 24.691406 -49.539062 24.359375 -50.40625 C 24.023438 -51.28125 23.691406 -52.148438 23.359375 -53.015625 C 23.222656 -53.347656 23.070312 -53.710938 22.90625 -54.109375 C 22.738281 -54.503906 22.554688 -54.867188 22.359375 -55.203125 C 22.222656 -55.335938 22.09375 -55.40625 21.96875 -55.40625 L 21.46875 -55.40625 C 21.195312 -54.875 20.941406 -54.304688 20.703125 -53.703125 C 20.472656 -53.109375 20.296875 -52.546875 20.171875 -52.015625 C 19.628906 -50.210938 19.140625 -48.394531 18.703125 -46.5625 C 18.273438 -44.738281 17.929688 -42.859375 17.671875 -40.921875 C 17.203125 -37.265625 17 -33.539062 17.0625 -29.75 C 17.132812 -25.957031 17.46875 -22.195312 18.0625 -18.46875 C 18.269531 -17.332031 18.140625 -16.332031 17.671875 -15.46875 C 16.273438 -21.988281 15.722656 -28.726562 16.015625 -35.6875 C 16.316406 -42.644531 17.898438 -49.117188 20.765625 -55.109375 C 20.492188 -54.910156 20.242188 -54.625 20.015625 -54.25 C 19.785156 -53.882812 19.566406 -53.535156 19.359375 -53.203125 C 18.429688 -51.335938 17.632812 -49.40625 16.96875 -47.40625 C 16.300781 -45.414062 15.769531 -43.390625 15.375 -41.328125 C 15.238281 -41.054688 15.171875 -40.921875 15.171875 -40.921875 C 14.972656 -39.796875 14.820312 -38.648438 14.71875 -37.484375 C 14.625 -36.316406 14.507812 -35.171875 14.375 -34.046875 C 14.238281 -30.648438 14.351562 -27.269531 14.71875 -23.90625 C 15.09375 -20.550781 15.644531 -17.238281 16.375 -13.96875 C 16.039062 -13.707031 15.675781 -13.546875 15.28125 -13.484375 C 14.082031 -13.210938 12.914062 -13.410156 11.78125 -14.078125 C 12.3125 -13.015625 13.039062 -11.914062 13.96875 -10.78125 C 14.90625 -9.644531 15.988281 -8.796875 17.21875 -8.234375 C 18.445312 -7.671875 19.757812 -7.585938 21.15625 -7.984375 C 22.289062 -8.378906 23.191406 -9.175781 23.859375 -10.375 C 24.191406 -10.914062 24.472656 -11.46875 24.703125 -12.03125 C 24.941406 -12.59375 25.125 -13.175781 25.25 -13.78125 Z M 25.25 -13.78125 "/></g></g></g></svg>