<?xml version="1.0" standalone="no"?>
<!DOCTYPE svg PUBLIC "-//W3C//DTD SVG 20010904//EN"
 "http://www.w3.org/TR/2001/REC-SVG-20010904/DTD/svg10.dtd">
<svg version="1.0" xmlns="http://www.w3.org/2000/svg"
 width="500.000000pt" height="500.000000pt" viewBox="0 0 500.000000 500.000000"
 preserveAspectRatio="xMidYMid meet">

<g transform="translate(0.000000,500.000000) scale(0.100000,-0.100000)"
fill="#000000" stroke="none">
<path d="M1820 3333 c-53 -19 -119 -128 -159 -263 -12 -41 -25 -82 -27 -90 -4
-11 -10 -7 -20 13 -20 38 -208 186 -320 252 -151 90 -226 97 -290 27 -47 -50
-51 -73 -27 -154 20 -67 20 -69 2 -79 -40 -21 -60 -103 -42 -172 2 -9 31 -31
63 -47 46 -23 59 -35 64 -57 2 -15 17 -107 33 -203 25 -157 30 -178 56 -207
l28 -32 -28 -15 c-38 -20 -77 -62 -105 -116 -19 -38 -23 -60 -23 -140 0 -81 4
-102 24 -142 29 -57 71 -98 131 -130 38 -20 60 -23 145 -23 90 0 104 3 145 27
25 14 58 40 74 57 34 35 30 43 -41 92 l-43 30 -46 -33 c-138 -99 -287 40 -214
199 38 85 138 108 214 50 19 -15 37 -27 41 -27 3 0 30 18 60 41 65 49 63 61
-17 113 l-51 33 2 64 c2 54 -12 155 -34 257 -4 18 -1 22 19 22 49 0 87 -12 82
-26 -4 -10 3 -14 19 -14 29 0 30 -1 10 -112 -20 -118 2 -185 71 -210 l34 -12
0 -273 0 -273 240 0 240 0 0 64 c0 49 -4 65 -16 70 -8 3 -80 4 -160 3 l-144
-4 0 49 0 48 140 0 140 0 0 65 0 65 -140 0 -140 0 0 45 0 45 155 0 155 0 0 44
c0 27 6 48 15 56 13 11 20 8 45 -21 l29 -34 1 -247 0 -248 80 0 79 0 3 88 3
87 36 3 c36 3 37 2 94 -87 l57 -91 89 0 c49 0 89 2 89 5 0 7 -99 157 -116 176
-13 14 -11 19 19 39 55 38 81 84 85 154 3 51 -1 69 -22 108 l-25 47 47 14 c26
8 50 12 55 10 4 -2 7 -29 7 -59 l0 -54 85 0 85 0 0 -220 0 -220 80 0 80 0 0
220 0 220 90 0 90 0 0 44 0 45 53 15 c30 9 62 25 72 36 22 24 23 24 70 4 l37
-15 -43 -28 c-83 -52 -129 -144 -129 -253 1 -120 57 -216 158 -265 50 -25 68
-28 152 -28 109 0 162 19 224 78 59 57 86 127 86 223 0 66 -4 89 -26 132 -14
29 -43 67 -64 85 l-38 31 48 53 c26 29 56 74 65 100 25 71 32 302 12 416 -16
91 -67 217 -88 217 -15 0 -33 23 -63 80 -13 25 -45 62 -71 84 -57 47 -110 56
-181 32 -26 -9 -58 -16 -70 -16 -16 0 -32 -14 -55 -50 l-33 -50 -19 34 c-43
74 -138 76 -197 3 -15 -18 -19 -17 -98 23 -89 44 -212 80 -277 80 -27 0 -53
-8 -77 -25 -20 -14 -51 -25 -68 -25 -39 0 -69 -15 -96 -47 l-21 -25 -69 35
c-99 49 -189 78 -265 84 -65 6 -67 5 -106 -31 -23 -20 -44 -48 -47 -61 -9 -36
-21 -31 -50 19 -15 25 -38 48 -56 56 -16 7 -30 16 -30 20 0 21 -82 37 -120 23z
m106 -78 c60 -40 60 -41 70 -150 7 -65 9 -74 14 -45 5 26 9 8 15 -68 7 -99 9
-104 34 -113 14 -6 35 -19 46 -29 20 -19 20 -18 16 26 -6 87 39 136 93 100 19
-12 28 -33 41 -93 48 -227 74 -290 132 -328 27 -18 139 -25 181 -11 27 9 30
59 5 96 -39 57 -164 193 -289 313 -100 96 -137 138 -149 171 -21 53 -12 90 28
120 26 19 29 19 114 3 103 -20 185 -57 274 -121 l64 -47 3 48 c2 26 10 56 19
65 22 24 70 23 85 -2 12 -18 13 -18 24 10 7 16 24 36 39 46 25 16 31 16 113 1
97 -19 199 -64 282 -127 l55 -41 3 48 c2 26 10 56 19 65 24 27 69 23 89 -7 14
-22 16 -46 9 -185 -4 -102 -3 -160 3 -160 5 0 12 22 16 49 12 90 77 251 102
251 7 0 21 15 32 34 26 44 69 66 133 69 45 2 54 -1 73 -25 12 -16 27 -28 33
-28 15 0 62 -109 79 -187 25 -113 29 -276 10 -373 -21 -99 -41 -142 -93 -192
-47 -46 -79 -58 -149 -58 -133 0 -212 105 -230 305 -6 72 -8 74 -30 69 -33 -8
-72 34 -80 87 -10 58 -74 127 -157 167 -135 66 -133 56 13 -94 150 -153 193
-212 216 -292 27 -92 -3 -166 -85 -209 -57 -30 -170 -31 -251 -3 -30 10 -55
18 -55 17 -9 -25 -40 -57 -55 -57 -36 0 -56 49 -91 220 -59 291 -62 340 -27
377 26 28 48 29 77 6 16 -14 27 -48 47 -148 48 -240 114 -309 272 -288 55 7
68 29 48 78 -18 43 -185 234 -257 295 -65 54 -157 151 -184 194 l-20 31 -8
-95 c-5 -52 -6 -136 -3 -187 5 -84 4 -92 -14 -98 -11 -3 -28 -1 -38 4 -19 10
-52 77 -52 107 0 27 -89 110 -152 142 -137 68 -135 58 25 -108 82 -84 157
-170 168 -191 94 -186 23 -320 -171 -319 -47 1 -96 8 -130 20 -30 10 -55 18
-55 17 -1 -1 -9 -14 -18 -29 -37 -59 -87 -16 -107 92 -10 52 -44 215 -57 270
l-5 25 -10 -25 c-5 -13 -16 -32 -23 -40 -13 -14 -12 -32 10 -139 29 -142 31
-193 9 -215 -59 -60 -118 41 -178 307 -6 25 -10 27 -61 27 -51 0 -55 -2 -61
-27 -3 -16 -10 -44 -14 -63 -5 -19 -12 -61 -15 -92 -4 -32 -11 -58 -16 -58
-11 0 -3 77 17 169 8 35 12 66 10 68 -7 8 -24 -64 -41 -175 -17 -112 -25 -136
-55 -152 -29 -15 -55 -12 -84 11 -32 25 -34 74 -10 200 21 107 21 108 9 110
-29 4 -65 43 -71 75 -5 27 -9 32 -19 24 -23 -19 -117 -28 -184 -19 -35 5 -66
7 -68 5 -2 -2 6 -64 18 -137 25 -150 22 -192 -17 -239 -36 -42 -71 -41 -78 3
-17 107 -18 113 -26 92 -5 -11 -9 -15 -9 -8 -1 9 -40 263 -55 353 -2 8 -28 27
-59 42 -52 25 -57 30 -57 61 0 39 15 57 47 57 29 0 29 7 -2 103 -14 43 -25 81
-25 86 0 16 55 69 78 74 66 15 237 -83 436 -250 37 -31 66 -85 66 -127 0 -12
5 -16 16 -12 9 3 27 9 40 12 16 4 26 16 30 33 39 177 96 317 143 348 19 13 38
23 44 23 5 0 34 -16 63 -35z m532 -556 c40 -45 72 -89 72 -101 0 -5 -20 -8
-44 -8 l-44 0 -16 69 c-23 100 -23 100 32 40z m641 -24 c28 -33 51 -66 51 -72
0 -9 -15 -13 -44 -13 l-45 0 -11 58 c-6 31 -14 65 -17 76 -8 30 11 15 66 -49z
m-1589 13 c10 -6 4 -8 -19 -4 -18 3 -44 6 -57 6 -13 0 -24 5 -24 10 0 12 77 3
100 -12z m405 -265 c-4 -56 -3 -74 4 -63 6 8 11 30 11 48 0 17 4 32 8 32 7 0
52 -82 52 -95 0 -3 -22 -5 -50 -5 -40 0 -50 3 -50 17 0 27 22 143 27 143 3 0
2 -35 -2 -77z m-493 -56 c-9 -18 -11 -8 -10 48 l0 70 10 -48 c7 -33 7 -55 0
-70z m-245 56 c-3 -10 -5 -2 -5 17 0 19 2 27 5 18 2 -10 2 -26 0 -35z m1373
-238 c27 -24 26 -76 -1 -101 -16 -14 -40 -20 -100 -23 l-79 -3 0 69 c0 38 3
73 8 77 14 15 151 0 172 -19z m1190 6 c45 -23 80 -84 80 -137 0 -91 -54 -154
-139 -161 -87 -8 -161 64 -161 159 0 121 116 195 220 139z"/>
<path d="M3601 3093 c-12 -14 -31 -58 -44 -97 -18 -59 -22 -94 -22 -206 0 -74
4 -156 8 -182 8 -47 8 -48 -17 -48 -14 0 -26 -5 -26 -10 0 -18 47 -59 76 -66
63 -16 103 43 122 184 18 127 -27 422 -68 447 -5 3 -18 -7 -29 -22z m-23 -124
c-13 -59 -17 -271 -5 -334 6 -35 5 -37 -5 -15 -16 36 -16 283 0 353 8 32 16
57 18 54 2 -2 -1 -28 -8 -58z"/>
<path d="M1200 3072 c0 -4 8 -38 18 -76 17 -66 20 -70 57 -84 51 -18 215 -29
215 -14 0 14 -48 53 -119 96 -69 42 -171 89 -171 78z"/>
<path d="M1847 3003 c-8 -32 -19 -75 -22 -95 -7 -38 -7 -38 27 -38 19 0 37 2
40 5 6 6 -16 172 -23 180 -3 3 -13 -21 -22 -52z"/>
<path d="M1267 2799 c7 -7 50 -13 105 -15 l93 -3 -77 8 c-42 5 -89 12 -105 15
-22 6 -25 5 -16 -5z"/>
<path d="M1272 2523 c-1 -28 -6 -63 -12 -77 -6 -17 -6 -26 0 -26 15 0 22 40
17 101 l-3 54 -2 -52z"/>
</g>
</svg>
